<?xml version="1.0" encoding="UTF-8"?>
<svg id="fundo" xmlns="http://www.w3.org/2000/svg" xmlns:xlink="http://www.w3.org/1999/xlink" viewBox="0 0 500 500">
  <defs>
    <style>
      .cls-1 {
        fill: #fcb4ac;
      }

      .cls-2 {
        fill: #ff8270;
      }

      .cls-3 {
        fill: url(#Nova_amostra_de_padrão_4);
      }

      .cls-4 {
        fill: none;
      }
    </style>
    <pattern id="Nova_amostra_de_padrão_4" data-name="Nova amostra de padrão 4" x="0" y="0" width="16.47" height="16.35" patternUnits="userSpaceOnUse" viewBox="0 0 16.47 16.35">
      <g>
        <rect class="cls-4" x="0" width="16.47" height="16.35"/>
        <g>
          <g>
            <path class="cls-1" d="m8.28,6h0c-1.24-1.24-1.24-3.26,0-4.5h0s0,0,0,0c1.24,1.24,1.24,3.26,0,4.5h0Z"/>
            <path class="cls-1" d="m8.28,14.85h0c-1.24-1.24-1.24-3.26,0-4.5h0s0,0,0,0c1.24,1.24,1.24,3.26,0,4.5h0Z"/>
            <path class="cls-1" d="m1.5,8.17h0c1.24-1.24,3.26-1.24,4.5,0h0,0c-1.24,1.24-3.26,1.24-4.5,0h0Z"/>
            <path class="cls-1" d="m10.47,8.17h0c1.24-1.24,3.26-1.24,4.5,0h0,0c-1.24,1.24-3.26,1.24-4.5,0h0Z"/>
            <g>
              <g>
                <path class="cls-1" d="m8.27,4.99h0c0,1.76-1.43,3.18-3.18,3.18h0c0-1.76,1.43-3.18,3.18-3.18Z"/>
                <path class="cls-1" d="m8.28,8.17h0c1.76,0,3.18-1.43,3.18-3.18h0s0,0,0,0c-1.76,0-3.18,1.43-3.18,3.18h0Z"/>
              </g>
              <g>
                <path class="cls-1" d="m5.09,8.17h0c1.76,0,3.18,1.43,3.18,3.18h0c-1.76,0-3.18-1.43-3.18-3.18h0Z"/>
                <path class="cls-1" d="m8.28,8.17h0c1.76,0,3.18,1.43,3.18,3.18h0s0,0,0,0c-1.76,0-3.18-1.43-3.18-3.18h0Z"/>
              </g>
            </g>
          </g>
          <g>
            <g id="_Repetição_radial_" data-name="&amp;lt;Repetição radial&amp;gt;">
              <polygon class="cls-1" points="2.25 14.16 2.88 11.81 3.51 9.45 3.42 12.99 6.96 12.9 4.61 13.53 2.25 14.16"/>
            </g>
            <g id="_Repetição_radial_-2" data-name="&amp;lt;Repetição radial&amp;gt;">
              <polygon class="cls-1" points="2.25 2.19 4.6 2.82 6.96 3.45 3.42 3.36 3.51 6.9 2.88 4.55 2.25 2.19"/>
            </g>
            <g id="_Repetição_radial_-3" data-name="&amp;lt;Repetição radial&amp;gt;">
              <polygon class="cls-1" points="14.22 2.19 13.59 4.54 12.96 6.9 13.05 3.36 9.51 3.45 11.86 2.82 14.22 2.19"/>
            </g>
            <g id="_Repetição_radial_-4" data-name="&amp;lt;Repetição radial&amp;gt;">
              <polygon class="cls-1" points="14.22 14.16 11.87 13.53 9.51 12.9 13.05 12.99 12.96 9.45 13.59 11.8 14.22 14.16"/>
            </g>
          </g>
        </g>
        <g>
          <circle class="cls-1" cx="4.69" cy="4.61" r=".35"/>
          <circle class="cls-1" cx="4.15" cy="4.08" r=".22"/>
          <circle class="cls-1" cx="3.73" cy="3.66" r=".17"/>
        </g>
        <g>
          <circle class="cls-1" cx="11.8" cy="4.61" r=".35"/>
          <circle class="cls-1" cx="12.34" cy="4.08" r=".22"/>
          <circle class="cls-1" cx="12.76" cy="3.66" r=".17"/>
        </g>
        <g>
          <circle class="cls-1" cx="11.8" cy="11.67" r=".35"/>
          <circle class="cls-1" cx="12.34" cy="12.2" r=".22"/>
          <circle class="cls-1" cx="12.76" cy="12.62" r=".17"/>
        </g>
        <g>
          <circle class="cls-1" cx="4.69" cy="11.67" r=".35"/>
          <circle class="cls-1" cx="4.15" cy="12.2" r=".22"/>
          <circle class="cls-1" cx="3.73" cy="12.62" r=".17"/>
        </g>
      </g>
    </pattern>
  </defs>
  <rect class="cls-2" width="500" height="500"/>
  <rect class="cls-3" width="500" height="500"/>
</svg>