<?xml version="1.0" encoding="UTF-8"?>
<svg xmlns="http://www.w3.org/2000/svg" viewBox="0 0 1920 1200">
  <defs>
    <style>
      .cls-1 {
        stroke-width: .97px;
      }

      .cls-1, .cls-2, .cls-3, .cls-4, .cls-5, .cls-6, .cls-7, .cls-8, .cls-9, .cls-10, .cls-11, .cls-12, .cls-13, .cls-14, .cls-15, .cls-16, .cls-17, .cls-18, .cls-19, .cls-20, .cls-21, .cls-22, .cls-23, .cls-24, .cls-25, .cls-26, .cls-27, .cls-28, .cls-29, .cls-30, .cls-31, .cls-32, .cls-33, .cls-34, .cls-35, .cls-36, .cls-37, .cls-38, .cls-39, .cls-40, .cls-41, .cls-42, .cls-43, .cls-44, .cls-45, .cls-46, .cls-47, .cls-48, .cls-49, .cls-50, .cls-51, .cls-52, .cls-53, .cls-54, .cls-55, .cls-56, .cls-57, .cls-58, .cls-59, .cls-60, .cls-61, .cls-62, .cls-63, .cls-64, .cls-65, .cls-66, .cls-67, .cls-68, .cls-69, .cls-70, .cls-71, .cls-72, .cls-73, .cls-74, .cls-75, .cls-76, .cls-77, .cls-78, .cls-79, .cls-80, .cls-81, .cls-82, .cls-83, .cls-84, .cls-85, .cls-86, .cls-87, .cls-88, .cls-89, .cls-90, .cls-91, .cls-92, .cls-93, .cls-94, .cls-95, .cls-96, .cls-97, .cls-98, .cls-99, .cls-100, .cls-101, .cls-102, .cls-103 {
        fill: none;
        stroke-miterlimit: 10;
      }

      .cls-1, .cls-7, .cls-9, .cls-11, .cls-12, .cls-13, .cls-18, .cls-19, .cls-21, .cls-22, .cls-23, .cls-29, .cls-32, .cls-33, .cls-35, .cls-36, .cls-39, .cls-40, .cls-41, .cls-42, .cls-44, .cls-46, .cls-49, .cls-50, .cls-51, .cls-52, .cls-53, .cls-54, .cls-58, .cls-62, .cls-63, .cls-68, .cls-69, .cls-70, .cls-73, .cls-77, .cls-81, .cls-82, .cls-83, .cls-88, .cls-90, .cls-91, .cls-93, .cls-94, .cls-95, .cls-96, .cls-97, .cls-98, .cls-99, .cls-100, .cls-102, .cls-103 {
        stroke: #e03d28;
      }

      .cls-2 {
        stroke-width: .83px;
      }

      .cls-2, .cls-3, .cls-4, .cls-5, .cls-6, .cls-8, .cls-10, .cls-14, .cls-15, .cls-16, .cls-17, .cls-20, .cls-24, .cls-25, .cls-26, .cls-27, .cls-28, .cls-30, .cls-31, .cls-34, .cls-37, .cls-38, .cls-43, .cls-45, .cls-47, .cls-48, .cls-55, .cls-56, .cls-57, .cls-59, .cls-60, .cls-61, .cls-64, .cls-65, .cls-66, .cls-67, .cls-71, .cls-72, .cls-74, .cls-75, .cls-76, .cls-78, .cls-79, .cls-80, .cls-84, .cls-85, .cls-86, .cls-87, .cls-89, .cls-92, .cls-101 {
        stroke: #a52210;
      }

      .cls-3 {
        stroke-width: 1.3px;
      }

      .cls-4 {
        stroke-width: 1.41px;
      }

      .cls-5 {
        stroke-width: 1.47px;
      }

      .cls-6 {
        stroke-width: .85px;
      }

      .cls-7 {
        stroke-width: .93px;
      }

      .cls-8 {
        stroke-width: 1.23px;
      }

      .cls-9 {
        stroke-width: 1px;
      }

      .cls-10 {
        stroke-width: .73px;
      }

      .cls-11 {
        stroke-width: .96px;
      }

      .cls-12 {
        stroke-width: 1.32px;
      }

      .cls-13 {
        stroke-width: 1.74px;
      }

      .cls-14 {
        stroke-width: .82px;
      }

      .cls-15 {
        stroke-width: .74px;
      }

      .cls-16 {
        stroke-width: .75px;
      }

      .cls-17 {
        stroke-width: 1.29px;
      }

      .cls-18 {
        stroke-width: 1.68px;
      }

      .cls-19 {
        stroke-width: 1.65px;
      }

      .cls-20 {
        stroke-width: 1.28px;
      }

      .cls-21 {
        stroke-width: 1.66px;
      }

      .cls-22 {
        stroke-width: 1.71px;
      }

      .cls-23 {
        stroke-width: 1.06px;
      }

      .cls-24 {
        stroke-width: .85px;
      }

      .cls-25 {
        stroke-width: 1.35px;
      }

      .cls-26 {
        stroke-width: 1.43px;
      }

      .cls-27 {
        stroke-width: 1.03px;
      }

      .cls-28 {
        stroke-width: .86px;
      }

      .cls-29 {
        stroke-width: 1.95px;
      }

      .cls-30 {
        stroke-width: .88px;
      }

      .cls-31 {
        stroke-width: 1.24px;
      }

      .cls-32 {
        stroke-width: 1.18px;
      }

      .cls-33 {
        stroke-width: 1.69px;
      }

      .cls-34 {
        stroke-width: 1.19px;
      }

      .cls-35 {
        stroke-width: 1.55px;
      }

      .cls-36 {
        stroke-width: 1.15px;
      }

      .cls-37 {
        stroke-width: 1.26px;
      }

      .cls-38 {
        stroke-width: 1.44px;
      }

      .cls-104 {
        fill: #f5f3e6;
      }

      .cls-39 {
        stroke-width: 1.05px;
      }

      .cls-40 {
        stroke-width: 1.76px;
      }

      .cls-41 {
        stroke-width: 1.28px;
      }

      .cls-42 {
        stroke-width: 1.6px;
      }

      .cls-43 {
        stroke-width: 1.4px;
      }

      .cls-44 {
        stroke-width: 1.37px;
      }

      .cls-45 {
        stroke-width: 1.48px;
      }

      .cls-46 {
        stroke-width: 1.36px;
      }

      .cls-47 {
        stroke-width: 1.2px;
      }

      .cls-48 {
        stroke-width: 1.26px;
      }

      .cls-49 {
        stroke-width: 1.92px;
      }

      .cls-50 {
        stroke-width: 1.22px;
      }

      .cls-51 {
        stroke-width: 1.58px;
      }

      .cls-105 {
        opacity: .4;
      }

      .cls-52 {
        stroke-width: 1.64px;
      }

      .cls-53 {
        stroke-width: 1.14px;
      }

      .cls-54 {
        stroke-width: 1.98px;
      }

      .cls-55 {
        stroke-width: 1px;
      }

      .cls-56 {
        stroke-width: 1.39px;
      }

      .cls-57 {
        stroke-width: .96px;
      }

      .cls-58 {
        stroke-width: 1.17px;
      }

      .cls-59 {
        stroke-width: .92px;
      }

      .cls-60 {
        stroke-width: 1.26px;
      }

      .cls-61 {
        stroke-width: 1.44px;
      }

      .cls-62 {
        stroke-width: 1.58px;
      }

      .cls-63 {
        stroke-width: 1.95px;
      }

      .cls-64 {
        stroke-width: .8px;
      }

      .cls-65 {
        stroke-width: .79px;
      }

      .cls-66 {
        stroke-width: .73px;
      }

      .cls-67 {
        stroke-width: .79px;
      }

      .cls-68 {
        stroke-width: 1.51px;
      }

      .cls-69 {
        stroke-width: 1.8px;
      }

      .cls-70 {
        stroke-width: 1.05px;
      }

      .cls-71 {
        stroke-width: 1.18px;
      }

      .cls-72 {
        stroke-width: 1.46px;
      }

      .cls-73 {
        stroke-width: 1.13px;
      }

      .cls-74 {
        stroke-width: .88px;
      }

      .cls-75 {
        stroke-width: 1.13px;
      }

      .cls-76 {
        stroke-width: .7px;
      }

      .cls-77 {
        stroke-width: 1.65px;
      }

      .cls-78 {
        stroke-width: .89px;
      }

      .cls-79 {
        stroke-width: 1.32px;
      }

      .cls-80 {
        stroke-width: 1.39px;
      }

      .cls-81 {
        stroke-width: 1.72px;
      }

      .cls-82 {
        stroke-width: .97px;
      }

      .cls-83 {
        stroke-width: 1.85px;
      }

      .cls-84 {
        stroke-width: 1.24px;
      }

      .cls-85 {
        stroke-width: .99px;
      }

      .cls-86 {
        stroke-width: 1.24px;
      }

      .cls-87 {
        stroke-width: 1.32px;
      }

      .cls-88 {
        stroke-width: 1.76px;
      }

      .cls-89 {
        stroke-width: 1.12px;
      }

      .cls-90 {
        stroke-width: 1.91px;
      }

      .cls-91 {
        stroke-width: 1.68px;
      }

      .cls-92 {
        stroke-width: 1.16px;
      }

      .cls-93 {
        stroke-width: 1.33px;
      }

      .cls-94 {
        stroke-width: 1.17px;
      }

      .cls-95 {
        stroke-width: .98px;
      }

      .cls-96 {
        stroke-width: 1.87px;
      }

      .cls-97 {
        stroke-width: 1.1px;
      }

      .cls-98 {
        stroke-width: 1.92px;
      }

      .cls-99 {
        stroke-width: 1.49px;
      }

      .cls-100 {
        stroke-width: 1.1px;
      }

      .cls-101 {
        stroke-width: .72px;
      }

      .cls-102 {
        stroke-width: 1.88px;
      }

      .cls-103 {
        stroke-width: 1.85px;
      }
    </style>
  </defs>
  <g id="fundo">
    <rect class="cls-104" x="0" width="1920" height="1200"/>
  </g>
  <g id="fruta">
    <g>
      <g class="cls-105">
        <path class="cls-7" d="m1675.33,1142.63c5.67,15.53,17.06,27.92,32.05,34.89,14.99,6.97,31.8,7.68,47.33,2.01l-.92-2.51c-30.67,11.21-64.74-4.63-75.95-35.3s4.63-64.74,35.3-75.95l-.92-2.51c-15.53,5.67-27.92,17.06-34.89,32.05-6.97,14.99-7.68,31.8-2.01,47.33Z"/>
        <path class="cls-76" d="m1704.13,1160.98c7.16,5.3,15.69,8.6,24.62,9.46l3.65-46.72-28.28,37.25Z"/>
        <path class="cls-76" d="m1698.37,1086.8c-6.32,6.42-10.75,14.46-12.83,23.16l45.84,10.29-33.01-33.45Z"/>
        <path class="cls-76" d="m1730.1,1170.55c6.69.46,13.57-.44,20.27-2.89h0s-14.63-40.04-14.63-40.04l-2-3.72-3.65,46.64Z"/>
        <path class="cls-76" d="m1687.42,1138.91c3.3,8.68,8.81,15.9,15.64,21.25l28.33-37.32-43.97,16.07Z"/>
        <path class="cls-76" d="m1699.33,1085.85l33.07,33.51-.45-2.12-15.4-42.14h0c-6.64,2.43-12.44,6.13-17.23,10.74Z"/>
        <path class="cls-76" d="m1686.96,1137.65l44.04-16.09-45.76-10.27c-1.79,8.51-1.36,17.59,1.72,26.37Z"/>
      </g>
      <g class="cls-105">
        <path class="cls-53" d="m1669.63,1241.5c20.01-2.55,37.84-12.73,50.19-28.69,12.35-15.95,17.75-35.76,15.21-55.78l-3.23.41c5.03,39.53-23.04,75.79-62.58,80.82-39.53,5.03-75.79-23.04-80.82-62.58l-3.23.41c2.55,20.01,12.73,37.84,28.69,50.19,15.95,12.35,35.76,17.75,55.78,15.21Z"/>
        <path class="cls-6" d="m1699.26,1212.19c8.24-7.09,14.48-16.34,17.93-26.74l-54.6-17,36.67,43.74Z"/>
        <path class="cls-6" d="m1609.43,1198.96c5.93,9.26,14.3,16.71,24.09,21.54l24.66-51.76-48.75,30.22Z"/>
        <path class="cls-6" d="m1717.69,1183.89c2.36-7.83,3.15-16.27,2.06-24.91h0s-51.6,6.57-51.6,6.57l-4.96,1.37,54.51,16.97Z"/>
        <path class="cls-6" d="m1668.48,1226.1c11.23-1.58,21.31-6.17,29.53-12.86l-36.73-43.81,7.21,56.67Z"/>
        <path class="cls-6" d="m1608.57,1197.57l48.84-30.28-2.64-.04-54.31,6.91h0c1.09,8.56,3.93,16.46,8.11,23.41Z"/>
        <path class="cls-6" d="m1666.85,1226.31l-7.22-56.77-24.62,51.67c9.64,4.44,20.56,6.38,31.84,5.1Z"/>
      </g>
      <g class="cls-105">
        <path class="cls-98" d="m1330.62,1222.43c33.92-1.6,65.18-16.31,88.03-41.42,22.85-25.11,34.56-57.62,32.96-91.53l-5.48.26c3.16,66.99-48.78,124.06-115.77,127.22-66.99,3.16-124.06-48.78-127.22-115.77l-5.48.26c1.6,33.92,16.31,65.18,41.42,88.03,25.11,22.85,57.62,34.56,91.53,32.96Z"/>
        <path class="cls-61" d="m1384.24,1177.22c14.78-10.79,26.48-25.47,33.65-42.46l-89.32-35.81,55.67,78.27Z"/>
        <path class="cls-61" d="m1235.31,1143.03c8.71,16.33,21.76,29.94,37.53,39.35l48.29-83.54-85.82,44.19Z"/>
        <path class="cls-61" d="m1418.93,1132.2c5-12.82,7.46-26.87,6.78-41.51h0s-87.45,4.12-87.45,4.12l-8.51,1.63,89.18,35.75Z"/>
        <path class="cls-61" d="m1330.74,1196.44c19.05-1.15,36.57-7.51,51.25-17.62l-55.77-78.41,4.52,96.03Z"/>
        <path class="cls-61" d="m1234.05,1140.57l85.97-44.26-4.42-.42-92.03,4.34h0c.68,14.5,4.39,28.14,10.48,40.35Z"/>
        <path class="cls-61" d="m1327.97,1196.57l-4.53-96.2-48.2,83.39c15.57,8.73,33.64,13.44,52.74,12.81Z"/>
      </g>
      <g class="cls-105">
        <path class="cls-93" d="m996.22,994.8c-13.09,19.6-17.77,43.12-13.17,66.24,4.6,23.12,17.92,43.06,37.52,56.15l2.12-3.17c-38.71-25.86-49.16-78.4-23.3-117.11,25.86-38.71,78.4-49.16,117.11-23.3l2.12-3.17c-19.6-13.09-43.12-17.77-66.24-13.17-23.12,4.6-43.06,17.92-56.15,37.52Z"/>
        <path class="cls-55" d="m999.35,1043.38c-.07,12.7,3.3,25.29,9.83,36.3l56.84-35.11-66.67-1.19Z"/>
        <path class="cls-55" d="m1079.86,974.32c-12.72-1.87-25.69-.2-37.45,4.73l26.74,61.42,10.72-66.14Z"/>
        <path class="cls-55" d="m1010.18,1081.32c5.1,8.08,11.93,15.25,20.39,20.9h0s33.76-50.53,33.76-50.53l2.59-5.42-56.74,35.05Z"/>
        <path class="cls-55" d="m1010.68,1005.58c-7.21,11.11-10.89,23.52-11.29,35.88l66.78,1.19-55.49-37.08Z"/>
        <path class="cls-55" d="m1081.75,974.63l-10.74,66.26,2.06-2.29,35.53-53.18h0c-8.38-5.6-17.53-9.15-26.86-10.79Z"/>
        <path class="cls-55" d="m1011.75,1003.98l55.59,37.14-26.69-61.31c-11.3,5.1-21.38,13.24-28.9,24.17Z"/>
      </g>
      <g class="cls-105">
        <path class="cls-82" d="m718.5,860.98c16.52-4.96,30.12-16.06,38.3-31.25,8.18-15.19,9.95-32.65,4.99-49.18l-2.67.8c9.8,32.63-8.78,67.15-41.42,76.95-32.63,9.8-67.15-8.78-76.95-41.42l-2.67.8c4.96,16.52,16.06,30.12,31.25,38.3,15.19,8.18,32.65,9.95,49.18,4.99Z"/>
        <path class="cls-66" d="m739.38,832.1c5.96-7.14,9.92-15.81,11.37-25.07l-48.44-6.67,37.07,31.73Z"/>
        <path class="cls-66" d="m661.76,833.56c6.31,6.98,14.41,12.08,23.34,14.78l13.53-47.12-36.87,32.34Z"/>
        <path class="cls-66" d="m750.94,805.64c.89-6.94.37-14.17-1.77-21.29h0s-42.6,12.79-42.6,12.79l-3.99,1.85,48.36,6.66Z"/>
        <path class="cls-66" d="m715.37,848.16c9.25-2.91,17.1-8.2,23.09-14.99l-37.14-31.79,14.04,46.78Z"/>
        <path class="cls-66" d="m660.83,832.51l36.93-32.39-2.23.33-44.83,13.46h0c2.12,7.06,5.63,13.33,10.13,18.6Z"/>
        <path class="cls-66" d="m714.02,848.56l-14.07-46.86-13.5,47.04c8.75,2.39,18.24,2.49,27.57-.17Z"/>
      </g>
      <g class="cls-105">
        <path class="cls-102" d="m731.03,1324.42c19.88-26.69,28.18-59.52,23.36-92.45-4.81-32.93-22.16-62.01-48.85-81.89l-3.21,4.31c52.72,39.27,63.66,114.1,24.39,166.82-39.27,52.72-114.1,63.66-166.82,24.39l-3.21,4.31c26.69,19.88,59.52,28.18,92.45,23.36,32.93-4.81,62.01-22.16,81.89-48.85Z"/>
        <path class="cls-4" d="m717.59,1201.41c-6.6-11.76-15.72-22.37-27.24-30.95h0s-51.26,68.81-51.26,68.81l-4.05,7.46,82.54-45.33Z"/>
      </g>
      <g class="cls-105">
        <path class="cls-46" d="m440.21,1277.94c-3.04-23.89-15.21-45.17-34.26-59.91-19.05-14.74-42.69-21.18-66.58-18.14l.49,3.86c47.19-6.01,90.48,27.49,96.49,74.68,6.01,47.19-27.49,90.48-74.68,96.49l.49,3.86c23.89-3.04,45.17-15.21,59.91-34.26,14.74-19.05,21.18-42.69,18.14-66.58Z"/>
      </g>
      <g class="cls-105">
        <path class="cls-32" d="m379.96,841.36c-7.3-19.68-21.84-35.34-40.92-44.09-19.08-8.75-40.43-9.55-60.1-2.24l1.18,3.18c38.87-14.43,82.23,5.46,96.66,44.33,14.43,38.87-5.46,82.23-44.33,96.66l1.18,3.18c19.68-7.3,35.34-21.84,44.09-40.92,8.75-19.08,9.55-40.43,2.24-60.1Z"/>
        <path class="cls-78" d="m343.27,818.25c-9.13-6.68-19.97-10.82-31.32-11.86l-4.34,59.34,35.66-47.48Z"/>
        <path class="cls-78" d="m351.07,912.39c7.99-8.2,13.55-18.43,16.14-29.49l-58.27-12.77,42.13,42.26Z"/>
        <path class="cls-78" d="m310.24,806.26c-8.49-.54-17.23.64-25.72,3.8h0s18.83,50.74,18.83,50.74l2.56,4.7,4.33-59.24Z"/>
        <path class="cls-78" d="m364.63,846.16c-4.25-11-11.28-20.13-20-26.88l-35.72,47.56,55.72-20.68Z"/>
        <path class="cls-78" d="m349.86,913.6l-42.21-42.34.58,2.68,19.82,53.4h0c8.42-3.12,15.75-7.87,21.8-13.75Z"/>
        <path class="cls-78" d="m365.23,847.76l-55.82,20.72,58.17,12.75c2.22-10.81,1.61-22.34-2.35-33.47Z"/>
      </g>
      <g class="cls-105">
        <path class="cls-23" d="m63.29,1182.7c-15.8-10.25-34.65-13.73-53.07-9.8-18.42,3.93-34.21,14.79-44.45,30.59l2.55,1.66c20.24-31.21,62.1-40.14,93.31-19.89,31.21,20.24,40.14,62.1,19.89,93.31l2.55,1.66c10.25-15.8,13.73-34.65,9.8-53.07-3.93-18.42-14.79-34.21-30.59-44.45Z"/>
        <path class="cls-64" d="m24.51,1185.73c-10.15.09-20.17,2.92-28.89,8.25l28.67,45.02.22-53.28Z"/>
        <path class="cls-64" d="m-5.68,1194.8c-6.4,4.16-12.05,9.7-16.48,16.52h0s40.74,26.42,40.74,26.42l4.36,2.01-28.63-44.95Z"/>
        <path class="cls-64" d="m54.83,1194.37c-8.95-5.64-18.91-8.44-28.79-8.63l-.22,53.37,29.01-44.74Z"/>
        <path class="cls-64" d="m56.12,1195.2l-29.07,44.82,48.69-21.99c-4.2-8.97-10.81-16.94-19.62-22.82Z"/>
      </g>
    </g>
    <g>
      <g class="cls-105">
        <path class="cls-83" d="m1882.52,614.39c-31.09-10.73-64.49-8.71-94.06,5.69-29.57,14.4-51.76,39.44-62.49,70.53l5.02,1.73c21.19-61.4,88.39-94.12,149.79-72.93,61.4,21.19,94.12,88.39,72.93,149.79l5.02,1.73c10.73-31.09,8.71-64.49-5.69-94.06-14.4-29.57-39.44-51.76-70.53-62.49Z"/>
        <path class="cls-56" d="m1818.06,635.83c-17.17,4.41-32.96,13.42-45.5,26.13l67.52,64.26-22.01-90.39Z"/>
        <path class="cls-56" d="m1939.79,720.01c-1.98-17.82-8.84-34.74-19.65-48.87l-73.41,57.84,93.06-8.97Z"/>
        <path class="cls-56" d="m1770.71,663.89c-9.1,9.74-16.36,21.5-20.99,34.91h0s80.15,27.66,80.15,27.66l8.24,1.58-67.41-64.16Z"/>
        <path class="cls-56" d="m1873.09,637.73c-17.55-5.8-35.59-6.37-52.43-2.53l22.05,90.55,30.38-88.02Z"/>
        <path class="cls-56" d="m1940.04,722.68l-93.23,8.99,3.83,1.97,84.36,29.11h0c4.59-13.29,6.14-26.9,5.04-40.07Z"/>
        <path class="cls-56" d="m1875.63,638.6l-30.43,88.17,73.28-57.74c-10.88-13.44-25.44-24.16-42.85-30.44Z"/>
      </g>
      <g class="cls-105">
        <path class="cls-94" d="m1803.67,879.3c2.57-20.54-3.01-40.86-15.71-57.2-12.71-16.34-31.01-26.76-51.56-29.34l-.42,3.32c40.57,5.08,69.45,42.23,64.37,82.8-5.08,40.57-42.23,69.45-82.8,64.37l-.42,3.32c20.54,2.57,40.86-3.01,57.2-15.71,16.34-12.71,26.76-31.01,29.34-51.56Z"/>
        <path class="cls-30" d="m1782.1,842.38c-4.94-10-12.54-18.56-22-24.64l-30.82,49.93,52.82-25.29Z"/>
        <path class="cls-30" d="m1746.04,928.28c10.72-3.53,20.25-9.95,27.55-18.45l-45.16-37.71,17.6,56.16Z"/>
        <path class="cls-30" d="m1758.66,816.85c-7.18-4.34-15.37-7.28-24.23-8.39h0s-6.63,52.96-6.63,52.96l.1,5.28,30.77-49.85Z"/>
        <path class="cls-30" d="m1788.07,876.52c1.3-11.56-.7-22.75-5.25-32.62l-52.91,25.34,58.16,7.29Z"/>
        <path class="cls-30" d="m1744.43,928.79l-17.64-56.26-.72,2.61-6.98,55.74h0c8.78,1.1,17.37.29,25.33-2.09Z"/>
        <path class="cls-30" d="m1787.86,878.2l-58.26-7.3,45.08,37.65c6.87-8.45,11.58-18.81,13.19-30.35Z"/>
      </g>
      <g class="cls-105">
        <path class="cls-95" d="m1681.89,1043.86c-6.25-16.25-18.46-29.1-34.38-36.16-15.91-7.07-33.63-7.52-49.88-1.26l1.01,2.63c32.1-12.35,68.27,3.71,80.62,35.81,12.35,32.1-3.71,68.27-35.81,80.62l1.01,2.63c16.25-6.25,29.1-18.46,36.16-34.38,7.07-15.91,7.52-33.63,1.26-49.88Z"/>
        <path class="cls-15" d="m1651.23,1025.05c-7.64-5.45-16.67-8.78-26.1-9.52l-3.01,49.26,29.11-39.74Z"/>
        <path class="cls-15" d="m1658.63,1103.07c6.54-6.88,11.06-15.43,13.1-24.62l-48.46-10.02,35.37,34.64Z"/>
        <path class="cls-15" d="m1623.71,1015.43c-7.05-.37-14.29.71-21.3,3.4h0s16.13,41.9,16.13,41.9l2.17,3.88,3.01-49.18Z"/>
        <path class="cls-15" d="m1669.22,1047.99c-3.63-9.09-9.56-16.59-16.85-22.1l-29.16,39.81,46.02-17.71Z"/>
        <path class="cls-15" d="m1657.64,1104.08l-35.43-34.7.51,2.22,16.97,44.1h0c6.95-2.67,12.99-6.68,17.95-11.62Z"/>
        <path class="cls-15" d="m1669.73,1049.32l-46.1,17.74,48.38,10c1.74-8.99,1.11-18.55-2.28-27.74Z"/>
      </g>
      <g class="cls-105">
        <path class="cls-51" d="m1325.01,1183.34c26.62-8.97,48.14-27.77,60.62-52.94,12.47-25.16,14.4-53.68,5.43-80.3l-4.3,1.45c17.72,52.57-10.63,109.76-63.2,127.49-52.57,17.72-109.76-10.63-127.49-63.2l-4.3,1.45c8.97,26.62,27.77,48.14,52.94,60.62,25.16,12.47,53.68,14.4,80.3,5.43Z"/>
        <path class="cls-34" d="m1357.4,1135.2c9.3-11.94,15.28-26.27,17.13-41.41l-79.19-8.2,62.06,49.62Z"/>
        <path class="cls-34" d="m1231.17,1141.83c10.64,11.01,24.11,18.87,38.79,22.78l19.44-77.42-58.23,54.64Z"/>
        <path class="cls-34" d="m1374.77,1091.51c1.07-11.33-.17-23.07-4.04-34.56h0s-68.62,23.14-68.62,23.14l-6.39,3.23,79.05,8.19Z"/>
        <path class="cls-34" d="m1319.2,1162.64c14.89-5.24,27.38-14.27,36.76-25.66l-62.17-49.7,25.41,75.36Z"/>
        <path class="cls-34" d="m1229.6,1140.16l58.33-54.73-3.61.67-72.22,24.35h0c3.84,11.38,9.89,21.39,17.5,29.72Z"/>
        <path class="cls-34" d="m1317.04,1163.37l-25.45-75.49-19.41,77.28c14.37,3.41,29.81,3.05,44.86-1.79Z"/>
      </g>
      <g class="cls-105">
        <path class="cls-90" d="m856.63,941.53c24.59,23.2,56.74,35.43,90.53,34.45,33.79-.98,65.18-15.07,88.37-39.66l-3.97-3.75c-45.82,48.57-122.61,50.81-171.18,4.99-48.57-45.82-50.81-122.61-4.99-171.18l-3.97-3.75c-23.2,24.59-35.43,56.74-34.45,90.53.98,33.79,15.07,65.18,39.66,88.37Z"/>
        <path class="cls-26" d="m926.09,948.7c17.95,3.13,36.55,1.36,53.68-5.24l-36.08-88.76-17.6,94Z"/>
        <path class="cls-26" d="m847.65,818.35c-5.68,17.54-6.41,36.28-2.26,54.1l93.24-23.15-90.99-30.95Z"/>
        <path class="cls-26" d="m982.33,942.44c12.65-5.28,24.42-13.23,34.43-23.84h0s-63.4-59.81-63.4-59.81l-7.05-4.96,36.02,88.62Z"/>
        <path class="cls-26" d="m875.33,923.65c13.99,12.86,30.66,21.02,48.05,24.54l17.63-94.16-65.68,69.62Z"/>
        <path class="cls-26" d="m848.53,815.74l91.15,31-2.75-3.46-66.73-62.95h0c-9.92,10.52-17.13,22.6-21.67,35.41Z"/>
        <path class="cls-26" d="m873.33,921.76l65.8-69.75-93.08,23.11c4.51,17.19,13.62,33.4,27.28,46.64Z"/>
      </g>
      <g class="cls-105">
        <path class="cls-29" d="m840.9,1164.69c33.38-8.82,61.33-30.1,78.7-59.94,17.37-29.84,22.08-64.65,13.26-98.03l-5.39,1.42c17.41,65.93-22.06,133.74-87.99,151.15-65.93,17.41-133.74-22.06-151.15-87.99l-5.39,1.42c8.82,33.38,30.1,61.33,59.94,78.7,29.84,17.37,64.65,22.08,98.03,13.26Z"/>
        <path class="cls-72" d="m884.58,1108.32c12.39-13.88,20.9-30.96,24.41-49.38l-96.44-16.57,72.03,65.95Z"/>
        <path class="cls-72" d="m729.23,1106.06c12.15,14.38,28.01,25.13,45.7,31.13l30.21-93.35-75.91,62.22Z"/>
        <path class="cls-72" d="m909.47,1056.17c2.24-13.81,1.69-28.31-2.11-42.71h0s-86.06,22.73-86.06,22.73l-8.11,3.44,96.28,16.54Z"/>
        <path class="cls-72" d="m835.48,1138.84c18.69-5.2,34.76-15.25,47.2-28.44l-72.16-66.07,24.96,94.51Z"/>
        <path class="cls-72" d="m727.44,1103.89l76.04-62.33-4.49.52-90.58,23.92h0c3.77,14.27,10.37,27.05,19.02,37.89Z"/>
        <path class="cls-72" d="m832.76,1139.55l-25.01-94.68-30.15,93.18c17.34,5.36,36.31,6.2,55.16,1.49Z"/>
      </g>
      <g class="cls-105">
        <path class="cls-63" d="m407.28,954.78c32.85,10.96,68.01,8.46,98.99-7.02,30.98-15.48,54.07-42.1,65.03-74.96l-5.31-1.77c-21.64,64.89-92.04,100.08-156.94,78.44-64.89-21.64-100.08-92.04-78.44-156.94l-5.31-1.77c-10.96,32.85-8.46,68.01,7.02,98.99,15.48,30.98,42.1,54.07,74.96,65.03Z"/>
        <path class="cls-5" d="m474.92,931.5c18.03-4.83,34.56-14.49,47.63-28.01l-71.8-66.93,24.17,94.94Z"/>
        <path class="cls-5" d="m345.82,844.18c2.28,18.75,9.69,36.48,21.23,51.24l76.67-61.71-97.9,10.47Z"/>
        <path class="cls-5" d="m524.48,901.43c9.48-10.36,16.99-22.82,21.72-37h0s-84.71-28.25-84.71-28.25l-8.69-1.57,71.69,66.82Z"/>
        <path class="cls-5" d="m416.95,930.11c18.54,5.92,37.55,6.31,55.24,2.09l-24.21-95.11-31.02,93.02Z"/>
        <path class="cls-5" d="m345.52,841.38l98.07-10.49-4.05-2.03-89.15-29.73h0c-4.69,14.05-6.17,28.39-4.87,42.25Z"/>
        <path class="cls-5" d="m414.27,929.21l31.08-93.19-76.54,61.6c11.6,14.03,27.06,25.16,45.46,31.58Z"/>
      </g>
      <g class="cls-105">
        <path class="cls-62" d="m368.1,944.69c-27.3-6.27-55.4-1.54-79.14,13.33-23.74,14.87-40.26,38.09-46.53,65.39l4.41,1.01c12.39-53.92,66.33-87.71,120.25-75.32,53.92,12.39,87.71,66.33,75.32,120.25l4.41,1.01c6.27-27.3,1.54-55.4-13.33-79.14-14.87-23.74-38.09-40.26-65.38-46.53Z"/>
        <path class="cls-71" d="m315.45,968.68c-14.14,5.29-26.69,14.35-36.17,26.24l62.99,48.31-26.82-74.55Z"/>
        <path class="cls-71" d="m426.16,1028.95c-3.29-14.91-10.63-28.62-21.06-39.6l-56.93,55.63,77.99-16.02Z"/>
        <path class="cls-71" d="m277.89,996.73c-6.83,9.07-11.9,19.69-14.61,31.47h0s70.38,16.17,70.38,16.17l7.12.59-62.89-48.23Z"/>
        <path class="cls-71" d="m362.23,965.3c-15.38-3.32-30.72-2.17-44.63,2.61l26.87,74.68,17.75-77.29Z"/>
        <path class="cls-71" d="m426.62,1031.18l-78.13,16.05,3.42,1.32,74.07,17.02h0c2.68-11.67,2.77-23.33.64-34.39Z"/>
        <path class="cls-71" d="m364.45,965.81l-17.79,77.42,56.83-55.53c-10.43-10.4-23.73-18.16-39.04-21.9Z"/>
      </g>
      <g class="cls-105">
        <path class="cls-33" d="m2.61,901.99c22.26,19.94,50.95,30.01,80.79,28.37,29.84-1.64,57.25-14.8,77.19-37.06l-3.6-3.22c-39.38,43.97-107.19,47.7-151.16,8.32-43.97-39.38-47.7-107.19-8.32-151.16l-3.6-3.22c-19.94,22.26-30.01,50.95-28.37,80.79,1.64,29.84,14.8,57.25,37.06,77.19Z"/>
        <path class="cls-48" d="m64.15,906.74c15.93,2.35,32.33.37,47.32-5.85l-33.91-77.61-13.4,83.47Z"/>
        <path class="cls-48" d="m-8.15,793.35c-4.62,15.63-4.84,32.21-.76,47.85l81.87-22.58-81.11-25.27Z"/>
        <path class="cls-48" d="m113.71,899.92c11.05-4.95,21.27-12.25,29.88-21.85h0s-57.39-51.41-57.39-51.41l-6.34-4.23,33.86,77.48Z"/>
        <path class="cls-48" d="m18.73,885.76c12.65,11.04,27.57,17.87,43.02,20.59l13.43-83.61-56.45,63.03Z"/>
        <path class="cls-48" d="m-7.42,791.02l81.25,25.32-2.51-3-60.4-54.1h0c-8.53,9.52-14.62,20.37-18.34,31.78Z"/>
        <path class="cls-48" d="m16.91,884.14l56.55-63.14-81.72,22.54c4.38,15.09,12.8,29.2,25.17,40.59Z"/>
      </g>
    </g>
    <g>
      <g class="cls-105">
        <path class="cls-1" d="m1874.16,496.3c8.85-14.82,11.39-32.2,7.17-48.94-4.23-16.74-14.72-30.83-29.54-39.67l-1.43,2.39c29.28,17.47,38.88,55.51,21.41,84.79s-55.51,38.88-84.79,21.41l-1.43,2.39c14.82,8.85,32.2,11.39,48.94,7.16,16.74-4.23,30.83-14.72,39.67-29.54Z"/>
        <path class="cls-10" d="m1870.06,460.88c-.42-9.29-3.36-18.37-8.54-26.18l-40.26,27.8,48.81-1.62Z"/>
        <path class="cls-10" d="m1813.74,514.4c9.37.89,18.8-.82,27.22-4.86l-21.85-43.93-5.37,48.78Z"/>
        <path class="cls-10" d="m1860.72,433.53c-4.03-5.72-9.29-10.71-15.69-14.53h0s-22.81,38.22-22.81,38.22l-1.7,4.06,40.2-27.76Z"/>
        <path class="cls-10" d="m1863.18,488.95c4.86-8.39,7.09-17.61,6.92-26.67l-48.89,1.62,41.97,25.05Z"/>
        <path class="cls-10" d="m1812.34,514.24l5.38-48.87-1.42,1.75-24.01,40.22h0c6.34,3.78,13.16,6.04,20.05,6.89Z"/>
        <path class="cls-10" d="m1862.46,490.16l-42.05-25.09,21.81,43.85c8.07-4.15,15.14-10.48,20.24-18.76Z"/>
      </g>
      <g class="cls-105">
        <path class="cls-52" d="m1468.19,916.6c21.08-20.06,33.09-47.12,33.81-76.21.72-29.09-9.93-56.72-29.98-77.8l-3.41,3.24c39.62,41.64,37.98,107.74-3.66,147.36-41.64,39.62-107.74,37.98-147.36-3.66l-3.41,3.24c20.06,21.08,47.12,33.09,76.21,33.81,29.09.72,56.72-9.93,77.8-29.98Z"/>
        <path class="cls-8" d="m1477.58,857.24c3.52-15.28,2.87-31.35-2.01-46.38l-77.96,26.89,79.97,19.49Z"/>
        <path class="cls-8" d="m1361.91,918.61c14.81,5.7,30.89,7.19,46.39,4.45l-15.57-81.21-30.82,76.76Z"/>
        <path class="cls-8" d="m1474.81,808.61c-3.95-11.11-10.24-21.6-18.89-30.7h0s-54.35,51.72-54.35,51.72l-4.59,5.83,77.84-26.85Z"/>
        <path class="cls-8" d="m1453.7,899.7c11.7-11.43,19.49-25.37,23.32-40.16l-80.11-19.52,56.79,59.68Z"/>
        <path class="cls-8" d="m1359.71,917.73l30.88-76.9-3.1,2.2-57.2,54.43h0c8.58,9.01,18.63,15.77,29.43,20.27Z"/>
        <path class="cls-8" d="m1451.98,901.34l-56.89-59.79,15.54,81.07c14.99-3.08,29.34-10.16,41.35-21.28Z"/>
      </g>
      <g class="cls-105">
        <path class="cls-77" d="m1402.1,945.66c-4.34-28.99-19.7-54.55-43.27-71.98-23.56-17.43-52.5-24.64-81.49-20.3l.7,4.68c57.25-8.57,110.81,31.04,119.37,88.29,8.57,57.25-31.04,110.8-88.29,119.37l.7,4.68c28.99-4.34,54.55-19.7,71.98-43.27,17.43-23.56,24.64-52.5,20.3-81.49Z"/>
        <path class="cls-84" d="m1358.59,903.56c-10.56-11.75-24.19-20.51-39.4-25.18l-22.94,79.84,62.35-54.66Z"/>
        <path class="cls-84" d="m1342.25,1034.45c13.27-8.91,23.81-21.3,30.51-35.67l-75.96-34.16,45.45,69.83Z"/>
        <path class="cls-84" d="m1316.89,877.71c-11.45-3.18-23.73-4.06-36.24-2.19h0s11.19,74.74,11.19,74.74l2.15,7.16,22.91-79.71Z"/>
        <path class="cls-84" d="m1379.78,947.83c-2.65-16.26-9.64-30.75-19.62-42.47l-62.46,54.75,82.07-12.28Z"/>
        <path class="cls-84" d="m1340.25,1035.75l-45.53-69.96.02,3.83,11.77,78.66h0c12.39-1.86,23.79-6.23,33.74-12.53Z"/>
        <path class="cls-84" d="m1380.13,950.19l-82.22,12.31,75.83,34.1c6.14-14.14,8.6-30.06,6.39-46.41Z"/>
      </g>
      <g class="cls-105">
        <path class="cls-22" d="m1197.73,575.08c-2.02-30.29-15.72-57.97-38.56-77.96-22.84-19.99-52.1-29.88-82.39-27.86l.33,4.89c59.82-3.99,111.74,41.43,115.73,101.25,3.99,59.82-41.43,111.74-101.25,115.73l.33,4.89c30.29-2.02,57.97-15.72,77.96-38.56,19.99-22.84,29.88-52.1,27.86-82.39Z"/>
        <path class="cls-20" d="m1156.39,527.95c-9.91-13.02-23.23-23.22-38.53-29.33l-30.45,80.46,68.98-51.13Z"/>
        <path class="cls-20" d="m1128.43,661.65c14.45-8.07,26.38-19.97,34.52-34.23l-75.51-41.7,40.99,75.93Z"/>
        <path class="cls-20" d="m1115.54,497.73c-11.55-4.25-24.15-6.2-37.22-5.33h0s5.21,78.09,5.21,78.09l1.61,7.57,30.4-80.33Z"/>
        <path class="cls-20" d="m1174.5,575.43c-1.36-17-7.35-32.55-16.65-45.5l-69.1,51.22,85.75-5.72Z"/>
        <path class="cls-20" d="m1126.25,662.83l-41.07-76.07-.3,3.96,5.49,82.18h0c12.95-.86,25.08-4.42,35.88-10.07Z"/>
        <path class="cls-20" d="m1174.67,577.9l-85.9,5.73,75.38,41.63c7.53-14.07,11.43-30.3,10.52-47.36Z"/>
      </g>
      <g class="cls-105">
        <path class="cls-11" d="m959.34,418.01c-9.92-13.84-24.64-22.98-41.45-25.75-16.8-2.77-33.67,1.18-47.51,11.1l1.6,2.24c27.33-19.6,65.51-13.32,85.12,14.01,19.6,27.33,13.32,65.51-14.01,85.12l1.6,2.24c13.84-9.92,22.98-24.64,25.75-41.45,2.77-16.8-1.18-33.67-11.1-47.51Z"/>
        <path class="cls-101" d="m925.69,407.78c-8.57-3.27-17.94-4.19-27.05-2.58l9.3,47.36,17.75-44.78Z"/>
        <path class="cls-101" d="m951.92,479.78c4.5-8.12,6.66-17.32,6.32-26.53l-48.33,2.47,42.01,24.06Z"/>
        <path class="cls-101" d="m897.28,405.46c-6.76,1.39-13.35,4.19-19.32,8.47h0s25.59,35.67,25.59,35.67l3.01,3.13-9.28-47.28Z"/>
        <path class="cls-101" d="m948.37,425.05c-5.68-7.7-13.13-13.34-21.4-16.76l-17.78,44.86,39.18-28.1Z"/>
        <path class="cls-101" d="m951.24,480.98l-42.08-24.1,1.03,1.98,26.93,37.55h0c5.92-4.24,10.65-9.53,14.12-15.42Z"/>
        <path class="cls-101" d="m949.18,426.18l-39.25,28.15,48.24-2.46c-.57-8.94-3.52-17.82-9-25.69Z"/>
      </g>
      <g class="cls-105">
        <path class="cls-68" d="m502.97,751.84c-24.21,11.29-42.58,31.34-51.71,56.45-9.13,25.11-7.94,52.27,3.35,76.48l3.91-1.82c-22.31-47.82-1.55-104.88,46.27-127.19,47.82-22.31,104.88-1.55,127.19,46.27l3.91-1.82c-11.29-24.21-31.34-42.58-56.45-51.71-25.11-9.13-52.27-7.94-76.48,3.35Z"/>
        <path class="cls-75" d="m477.44,800.77c-7.53,12.27-11.66,26.45-11.81,40.96l75.72-.61-63.91-40.35Z"/>
        <path class="cls-75" d="m596.06,781.17c-11.22-9.29-24.78-15.29-39.08-17.44l-10.2,75.24,49.27-57.8Z"/>
        <path class="cls-75" d="m465.63,843.9c.19,10.83,2.59,21.79,7.47,32.24h0s62.43-29.12,62.43-29.12l5.7-3.73-75.6.61Z"/>
        <path class="cls-75" d="m510.64,770.79c-13.52,6.52-24.38,16.39-32.04,28.14l64.02,40.42-31.98-68.55Z"/>
        <path class="cls-75" d="m597.72,782.58l-49.36,57.9,3.35-1.01,65.7-30.65h0c-4.83-10.35-11.61-19.18-19.68-26.24Z"/>
        <path class="cls-75" d="m512.61,769.87l32.04,68.67,10.18-75.11c-13.94-1.7-28.5.26-42.22,6.43Z"/>
      </g>
      <g class="cls-105">
        <path class="cls-50" d="m375.38,605.32c-10.27-19.08-27.36-33.02-48.12-39.25-20.76-6.23-42.7-4-61.78,6.27l1.66,3.08c37.69-20.29,84.86-6.14,105.16,31.55,20.29,37.69,6.14,84.86-31.55,105.16l1.66,3.08c19.08-10.27,33.02-27.36,39.25-48.12,6.23-20.76,4-42.7-6.27-61.78Z"/>
        <path class="cls-59" d="m334.57,586.92c-10.29-5.53-21.96-8.21-33.72-7.66l4.02,61.29,29.7-53.63Z"/>
        <path class="cls-59" d="m355.97,682.07c7-9.52,11.23-20.78,12.3-32.46l-61.4-4.75,49.1,37.21Z"/>
        <path class="cls-59" d="m299.09,579.37c-8.76.66-17.53,3.12-25.76,7.55h0s26.49,49.2,26.49,49.2l3.29,4.45-4.01-61.19Z"/>
        <path class="cls-59" d="m360.4,612.41c-5.91-10.65-14.41-18.98-24.28-24.64l-29.75,53.73,54.03-29.09Z"/>
        <path class="cls-59" d="m354.9,683.48l-49.19-37.28.98,2.66,27.88,51.78h0c8.16-4.39,14.99-10.29,20.34-17.16Z"/>
        <path class="cls-59" d="m361.23,613.97l-54.12,29.14,61.3,4.75c.73-11.37-1.54-23.07-7.17-33.89Z"/>
      </g>
      <g class="cls-105">
        <path class="cls-35" d="m109.31,902.24c24.69-12.04,43.21-32.96,52.16-58.93,8.95-25.97,7.25-53.86-4.79-78.55l-3.99,1.94c23.77,48.76,3.44,107.78-45.32,131.55-48.76,23.77-107.78,3.44-131.55-45.32l-3.99,1.94c12.04,24.69,32.96,43.21,58.93,52.16,25.97,8.95,53.86,7.25,78.55-4.79Z"/>
        <path class="cls-92" d="m134.69,851.5c7.53-12.75,11.52-27.39,11.42-42.31l-77.82,1.96,66.4,40.35Z"/>
        <path class="cls-92" d="m13.1,873.73c11.7,9.35,25.74,15.28,40.47,17.23l9.16-77.51-49.63,60.28Z"/>
        <path class="cls-92" d="m146.06,806.96c-.38-11.13-3.05-22.35-8.24-33.01h0s-63.65,31.03-63.65,31.03l-5.8,3.94,77.69-1.96Z"/>
        <path class="cls-92" d="m101.08,882.9c13.78-6.94,24.77-17.27,32.44-29.49l-66.52-40.42,34.08,69.9Z"/>
        <path class="cls-92" d="m11.37,872.31l49.72-60.39-3.42,1.1-66.99,32.66h0c5.15,10.56,12.27,19.51,20.7,26.63Z"/>
        <path class="cls-92" d="m99.07,883.88l-34.14-70.02-9.14,77.38c14.36,1.51,29.29-.77,43.28-7.35Z"/>
      </g>
      <g class="cls-105">
        <path class="cls-13" d="m69.57,1000.83c9.8-29.23,7.64-60.53-6.1-88.14-13.74-27.6-37.4-48.2-66.64-58.01l-1.58,4.72c57.74,19.36,88.96,82.09,69.6,139.84-19.36,57.74-82.09,88.96-139.84,69.6l-1.58,4.72c29.23,9.8,60.53,7.64,88.14-6.1,27.6-13.74,48.2-37.4,58.01-66.64Z"/>
        <path class="cls-3" d="m48.95,940.57c-4.28-16.06-12.85-30.79-24.87-42.45l-59.69,63.83,84.56-21.38Z"/>
        <path class="cls-3" d="m-28.98,1055.38c16.69-2,32.5-8.57,45.65-18.82l-54.83-68.35,9.17,87.17Z"/>
        <path class="cls-3" d="m22.25,896.4c-9.21-8.45-20.29-15.16-32.91-19.39h0s-25.28,75.37-25.28,75.37l-1.41,7.74,59.6-63.72Z"/>
        <path class="cls-3" d="m47.62,992.18c5.29-16.5,5.68-33.42,1.94-49.17l-84.71,21.42,82.77,27.76Z"/>
        <path class="cls-3" d="m46.82,994.56l-82.92-27.81,54.73,68.23c12.51-10.31,22.44-24.05,28.19-40.42Z"/>
      </g>
    </g>
    <g>
      <g class="cls-105">
        <path class="cls-40" d="m1793.13,661.99c-25.01,18.65-41.25,45.92-45.75,76.78-4.5,30.87,3.3,61.64,21.94,86.64l4.04-3.01c-36.83-49.39-26.62-119.54,22.78-156.37,49.39-36.83,119.54-26.62,156.37,22.78l4.04-3.01c-18.65-25.01-45.92-41.25-76.78-45.75-30.87-4.5-61.64,3.3-86.64,21.94Z"/>
        <path class="cls-79" d="m1775.53,723.97c-5.71,15.81-7.07,33-3.81,49.62l86.43-18.63-82.62-30.99Z"/>
        <path class="cls-79" d="m1906.51,673.47c-15.03-7.96-31.95-11.61-48.8-10.68l6.16,88.43,42.64-77.75Z"/>
        <path class="cls-79" d="m1772.25,776.08c2.78,12.34,8.13,24.3,16.17,35.09h0s64.47-48.08,64.47-48.08l5.64-5.62-86.28,18.6Z"/>
        <path class="cls-79" d="m1806.39,681.84c-13.91,10.66-23.99,24.51-29.97,39.76l82.77,31.04-52.8-70.8Z"/>
        <path class="cls-79" d="m1908.74,674.69l-42.72,77.89,3.58-1.95,67.85-50.6h0c-7.97-10.69-17.81-19.17-28.72-25.34Z"/>
        <path class="cls-79" d="m1808.43,680.32l52.89,70.93-6.15-88.28c-16.35,1.36-32.52,7.05-46.74,17.35Z"/>
      </g>
      <g class="cls-105">
        <path class="cls-21" d="m1463.57,430.27c9.24-27.88,7.07-57.69-6.11-83.94-13.18-26.25-35.79-45.79-63.67-55.04l-1.49,4.5c55.07,18.25,85.03,77.91,66.77,132.98-18.25,55.07-77.91,85.03-132.98,66.77l-1.49,4.5c27.88,9.24,57.69,7.07,83.94-6.11,26.25-13.18,45.79-35.79,55.04-63.67Z"/>
        <path class="cls-31" d="m1443.72,372.94c-4.13-15.28-12.34-29.29-23.83-40.35l-56.65,61,80.48-20.65Z"/>
        <path class="cls-31" d="m1369.86,482.57c15.9-1.96,30.93-8.27,43.43-18.08l-52.46-64.93,9.03,83.01Z"/>
        <path class="cls-31" d="m1418.14,330.95c-8.8-8.02-19.38-14.37-31.41-18.36h0s-23.83,71.89-23.83,71.89l-1.32,7.38,56.56-60.9Z"/>
        <path class="cls-31" d="m1442.63,422.11c4.99-15.73,5.3-31.86,1.68-46.85l-80.63,20.69,78.94,26.17Z"/>
        <path class="cls-31" d="m1367.49,482.83l-9.05-83.16-1.72,3.44-25.08,75.66h0c11.92,3.95,24.09,5.19,35.84,4.07Z"/>
        <path class="cls-31" d="m1441.87,424.38l-79.08-26.21,52.37,64.82c11.88-9.86,21.3-22.99,26.72-38.6Z"/>
      </g>
      <g class="cls-105">
        <path class="cls-91" d="m1183.33,673.52c-24.8,16.37-41.75,41.42-47.71,70.54-5.96,29.12-.23,58.81,16.14,83.62l4.01-2.64c-32.34-49-18.79-115.16,30.21-147.5,49-32.34,115.16-18.79,147.5,30.21l4.01-2.64c-16.37-24.8-41.42-41.75-70.54-47.71-29.12-5.96-58.81-.23-83.62,16.14Z"/>
        <path class="cls-37" d="m1163.2,731.51c-6.29,14.73-8.53,31.01-6.33,47l83.23-13-76.9-33.99Z"/>
        <path class="cls-37" d="m1290.56,690.63c-13.86-8.39-29.76-12.79-45.84-12.83l1.03,84.46,44.81-71.63Z"/>
        <path class="cls-37" d="m1157.24,780.9c1.97,11.89,6.4,23.56,13.47,34.26h0s63.95-42.21,63.95-42.21l5.67-5.03-83.09,12.98Z"/>
        <path class="cls-37" d="m1194.86,693.12c-13.82,9.38-24.16,22-30.68,36.18l77.03,34.05-46.35-70.23Z"/>
        <path class="cls-37" d="m1292.61,691.92l-44.89,71.76,3.52-1.66,67.31-44.43h0c-7-10.61-15.89-19.21-25.94-25.67Z"/>
        <path class="cls-37" d="m1196.89,691.79l46.44,70.36-1.03-84.31c-15.62.4-31.32,4.93-45.41,13.95Z"/>
      </g>
      <g class="cls-105">
        <path class="cls-103" d="m1087.35,191.81c-30.75,11.45-55.21,34.19-68.86,64.04-13.65,29.84-14.86,63.22-3.41,93.97l4.97-1.85c-22.62-60.75,8.4-128.57,69.14-151.19,60.75-22.62,128.57,8.4,151.19,69.14l4.97-1.85c-11.45-30.75-34.19-55.21-64.04-68.86-29.84-13.65-63.22-14.86-93.97-3.41Z"/>
        <path class="cls-80" d="m1051.29,249.21c-10.43,14.29-16.88,31.24-18.49,48.99l92.77,6.68-74.29-55.67Z"/>
        <path class="cls-80" d="m1198.46,236.86c-12.83-12.47-28.84-21.16-46.13-25.19l-19.87,91.12,66-65.93Z"/>
        <path class="cls-80" d="m1032.6,300.87c-.83,13.28,1.04,26.94,5.98,40.21h0s79.29-29.53,79.29-29.53l7.35-4.01-92.62-6.67Z"/>
        <path class="cls-80" d="m1094.89,215.77c-17.2,6.66-31.46,17.67-41.99,31.31l74.42,55.77-32.43-87.08Z"/>
        <path class="cls-80" d="m1200.35,238.75l-66.12,66.05,4.2-.91,83.45-31.08h0c-4.9-13.15-12.33-24.62-21.53-34.07Z"/>
        <path class="cls-80" d="m1097.4,214.84l32.48,87.23,19.84-90.96c-16.91-3.45-34.93-2.48-52.32,3.73Z"/>
      </g>
      <g class="cls-105">
        <path class="cls-69" d="m1058.49,589.8c-20.35-24.49-49.02-39.6-80.73-42.53-31.71-2.93-62.66,6.67-87.16,27.02l3.29,3.96c48.38-40.2,120.45-33.54,160.65,14.84,40.2,48.38,33.54,120.45-14.84,160.65l3.29,3.96c24.49-20.35,39.6-49.02,42.53-80.73,2.93-31.71-6.67-62.66-27.02-87.16Z"/>
        <path class="cls-25" d="m994.35,575.18c-16.43-4.97-34.03-5.44-50.8-1.22l23.63,87.11,27.17-85.89Z"/>
        <path class="cls-25" d="m1052.86,706.01c7.31-15.75,10.13-33.2,8.27-50.33l-89.83,11.02,81.56,39.31Z"/>
        <path class="cls-25" d="m941.05,574.63c-12.43,3.49-24.34,9.59-34.91,18.37h0s52.47,63.15,52.47,63.15l6.03,5.45-23.59-86.97Z"/>
        <path class="cls-25" d="m1038.96,604.39c-11.62-13.61-26.27-23.15-42.14-28.42l-27.21,86.05,69.35-57.62Z"/>
        <path class="cls-25" d="m1051.73,708.35l-81.7-39.38,2.18,3.55,55.23,66.47h0c10.47-8.7,18.59-19.19,24.3-30.64Z"/>
        <path class="cls-25" d="m1040.62,606.38l-69.48,57.73,89.67-11c-2.26-16.59-8.93-32.78-20.19-46.72Z"/>
      </g>
      <g class="cls-105">
        <path class="cls-81" d="m812.74,689.14c-7.09-29.62-25.29-54.71-51.25-70.65-25.96-15.93-56.57-20.8-86.19-13.71l1.15,4.79c58.51-14,117.51,22.21,131.51,80.72,14,58.51-22.21,117.51-80.72,131.51l1.15,4.79c29.62-7.09,54.71-25.29,70.65-51.25,15.93-25.96,20.8-56.57,13.71-86.19Z"/>
        <path class="cls-17" d="m763.92,649.46c-11.99-11.22-26.88-19.07-43.05-22.54l-16.6,84.72,59.65-62.18Z"/>
        <path class="cls-17" d="m758.73,786.44c12.94-10.42,22.74-24.19,28.4-39.67l-81.71-28.56,53.32,68.23Z"/>
        <path class="cls-17" d="m718.43,626.43c-12.14-2.26-24.94-2.08-37.72.98h0s18.28,76.38,18.28,76.38l2.87,7.22,16.57-84.58Z"/>
        <path class="cls-17" d="m789.82,693.39c-4.2-16.59-12.74-30.97-24.12-42.21l-59.76,62.29,83.87-20.07Z"/>
        <path class="cls-17" d="m756.78,787.97l-53.41-68.35.37,3.97,19.24,80.38h0c12.67-3.03,24.07-8.59,33.81-16Z"/>
        <path class="cls-17" d="m790.4,695.8l-84.02,20.11,81.57,28.51c5.09-15.19,6.21-31.9,2.45-48.62Z"/>
      </g>
      <g class="cls-105">
        <path class="cls-99" d="m444.3,410.29c-18.2,19.21-27.83,44.36-27.12,70.81.71,26.45,11.69,51.05,30.89,69.25l2.94-3.1c-37.94-35.95-39.56-96.07-3.61-134.01,35.95-37.94,96.07-39.56,134.01-3.61l2.94-3.1c-19.21-18.2-44.36-27.83-70.81-27.12-26.45.71-51.05,11.69-69.25,30.89Z"/>
        <path class="cls-89" d="m438.56,464.66c-2.48,14.05-1.13,28.61,4.01,42.03l69.54-28.1-73.55-13.94Z"/>
        <path class="cls-89" d="m540.73,403.47c-13.72-4.48-28.39-5.08-42.34-1.86l17.96,73.03,24.38-71.17Z"/>
        <path class="cls-89" d="m443.37,508.69c4.11,9.91,10.31,19.14,18.6,26.99h0s46.93-49.53,46.93-49.53l3.9-5.51-69.43,28.05Z"/>
        <path class="cls-89" d="m458.26,424.96c-10.09,10.93-16.5,23.96-19.29,37.57l73.68,13.96-54.39-51.53Z"/>
        <path class="cls-89" d="m542.77,404.16l-24.42,71.3,2.71-2.15,49.39-52.13h0c-8.21-7.78-17.67-13.45-27.68-17.02Z"/>
        <path class="cls-89" d="m459.74,423.4l54.49,51.63-17.93-72.9c-13.47,3.5-26.17,10.61-36.56,21.27Z"/>
      </g>
      <g class="cls-105">
        <path class="cls-44" d="m202.26,640.89c-17.06-17.35-39.86-27.02-64.19-27.22-24.33-.21-47.29,9.08-64.64,26.14l2.76,2.8c34.27-33.7,89.57-33.23,123.27,1.04,33.7,34.27,33.23,89.57-1.04,123.27l2.76,2.8c17.35-17.06,27.02-39.86,27.22-64.19.21-24.33-9.08-47.29-26.14-64.64Z"/>
        <path class="cls-27" d="m152.49,633.85c-12.83-2.73-26.26-1.97-38.76,2.32l23.56,64.82,15.2-67.14Z"/>
        <path class="cls-27" d="m205.39,729.73c4.56-12.46,5.59-25.93,3.08-38.85l-67.69,14.13,64.61,24.72Z"/>
        <path class="cls-27" d="m111.87,636.84c-9.24,3.45-17.92,8.86-25.41,16.22h0s43.99,44.74,43.99,44.74l4.94,3.76-23.52-64.71Z"/>
        <path class="cls-27" d="m188.32,653.24c-9.71-9.62-21.48-15.95-33.9-18.95l-15.23,67.25,49.13-48.3Z"/>
        <path class="cls-27" d="m204.69,731.59l-64.72-24.76,1.89,2.56,46.29,47.08h0c7.42-7.3,12.93-15.8,16.54-24.88Z"/>
        <path class="cls-27" d="m189.71,654.66l-49.21,48.39,67.57-14.1c-2.78-12.49-8.9-24.39-18.36-34.29Z"/>
      </g>
      <g class="cls-105">
        <path class="cls-19" d="m-14.59,421.45c27.9,9.03,57.64,6.66,83.75-6.68,26.11-13.34,45.47-36.05,54.5-63.94l-4.51-1.46c-17.84,55.1-77.18,85.41-132.28,67.57-55.1-17.84-85.41-77.18-67.57-132.28l-4.51-1.46c-9.03,27.9-6.66,57.64,6.68,83.75,13.34,26.11,36.05,45.47,63.94,54.5Z"/>
        <path class="cls-86" d="m42.5,401.24c15.23-4.22,29.15-12.53,40.12-24.07l-61.29-56.13,21.17,80.2Z"/>
        <path class="cls-86" d="m-67.45,328.28c2.07,15.85,8.47,30.82,18.35,43.23l64.45-52.81-82.8,9.59Z"/>
        <path class="cls-86" d="m84.24,375.42c7.95-8.84,14.21-19.45,18.11-31.48h0s-71.92-23.29-71.92-23.29l-7.37-1.27,61.19,56.04Z"/>
        <path class="cls-86" d="m-6.59,400.49c15.74,4.87,31.84,5.07,46.78,1.36l-21.21-80.34-25.57,78.98Z"/>
        <path class="cls-86" d="m-67.72,325.91l82.95-9.6-3.44-1.69-75.7-24.51h0c-3.86,11.93-5.02,24.08-3.81,35.8Z"/>
        <path class="cls-86" d="m-8.86,399.76l25.62-79.12-64.34,52.72c9.93,11.8,23.09,21.1,38.72,26.4Z"/>
      </g>
    </g>
    <g>
      <g class="cls-105">
        <path class="cls-100" d="m1665.12,159.42c-16.45,10.38-27.87,26.55-32.17,45.53-4.29,18.98-.94,38.49,9.45,54.94l2.66-1.68c-20.51-32.5-10.76-75.62,21.74-96.13s75.62-10.76,96.13,21.74l2.66-1.68c-10.38-16.45-26.55-27.87-45.53-32.17-18.97-4.29-38.49-.94-54.94,9.45Z"/>
        <path class="cls-14" d="m1651.17,197.11c-4.31,9.56-6,20.18-4.77,30.67l54.64-7.4-49.87-23.27Z"/>
        <path class="cls-14" d="m1735.06,172.05c-8.96-5.68-19.31-8.77-29.83-9l-.45,55.29,30.28-46.28Z"/>
        <path class="cls-14" d="m1646.61,229.35c1.13,7.8,3.88,15.5,8.36,22.6h0s42.42-26.77,42.42-26.77l3.78-3.22-54.55,7.39Z"/>
        <path class="cls-14" d="m1672.41,172.4c-9.17,5.96-16.1,14.08-20.56,23.27l49.96,23.31-29.4-46.58Z"/>
        <path class="cls-14" d="m1736.39,172.92l-30.33,46.36,2.32-1.04,44.64-28.18h0c-4.44-7.03-10.15-12.79-16.63-17.15Z"/>
        <path class="cls-14" d="m1673.75,171.56l29.45,46.66.45-55.19c-10.23.05-20.57,2.81-29.9,8.52Z"/>
      </g>
      <g class="cls-105">
        <path class="cls-41" d="m1335.37,39.96c-19.54,11.42-33.46,29.76-39.21,51.65-5.74,21.89-2.62,44.71,8.8,64.24l3.16-1.84c-22.55-38.59-9.5-88.34,29.09-110.89s88.34-9.5,110.89,29.09l3.16-1.84c-11.42-19.54-29.76-33.46-51.65-39.21-21.89-5.74-44.71-2.62-64.24,8.8Z"/>
        <path class="cls-57" d="m1317.66,83.22c-5.4,10.94-7.77,23.22-6.76,35.47l63.82-6.43-57.05-29.04Z"/>
        <path class="cls-57" d="m1416.18,57.43c-10.19-6.96-22.1-10.96-34.32-11.65l-2.72,64.26,37.04-52.6Z"/>
        <path class="cls-57" d="m1311.07,120.53c1,9.12,3.89,18.18,8.82,26.61h0s50.38-29.44,50.38-29.44l4.52-3.59-63.71,6.42Z"/>
        <path class="cls-57" d="m1343.33,55.34c-10.9,6.56-19.28,15.73-24.83,26.23l57.15,29.09-32.33-55.32Z"/>
        <path class="cls-57" d="m1417.69,58.49l-37.11,52.69,2.74-1.11,53.02-30.98h0c-4.88-8.36-11.29-15.27-18.65-20.6Z"/>
        <path class="cls-57" d="m1344.92,54.41l32.38,55.42,2.72-64.14c-11.89-.35-24.02,2.45-35.1,8.72Z"/>
      </g>
      <g class="cls-105">
        <path class="cls-36" d="m1096.04,191.91c-20.15,2.5-38.12,12.69-50.6,28.7-12.48,16.01-17.98,35.92-15.48,56.07l3.25-.4c-4.93-39.8,23.43-76.18,63.23-81.11s76.18,23.43,81.11,63.23l3.25-.4c-2.5-20.15-12.69-38.12-28.7-50.6-16.01-12.48-35.92-17.98-56.07-15.48Z"/>
        <path class="cls-28" d="m1066.13,221.31c-8.32,7.11-14.63,16.39-18.13,26.84l54.88,17.29-36.75-44.13Z"/>
        <path class="cls-28" d="m1156.47,234.91c-5.94-9.34-14.33-16.86-24.17-21.75l-24.99,52,49.15-30.25Z"/>
        <path class="cls-28" d="m1047.5,249.72c-2.4,7.87-3.23,16.36-2.15,25.06h0s51.95-6.44,51.95-6.44l5-1.36-54.79-17.26Z"/>
        <path class="cls-28" d="m1097.15,207.41c-11.3,1.55-21.46,6.14-29.75,12.84l36.82,44.21-7.07-57.04Z"/>
        <path class="cls-28" d="m1157.34,236.32l-49.24,30.3,2.66.05,54.67-6.77h0c-1.07-8.62-3.9-16.58-8.09-23.58Z"/>
        <path class="cls-28" d="m1098.79,207.21l7.08,57.15,24.94-51.91c-9.68-4.5-20.67-6.48-32.02-5.23Z"/>
      </g>
      <g class="cls-105">
        <path class="cls-54" d="m782.8,106.28c12.65-32.71,11.81-68.4-2.38-100.48-14.19-32.08-40.01-56.72-72.73-69.37l-2.04,5.29c64.62,24.99,96.86,97.9,71.87,162.52-24.99,64.62-97.9,96.86-162.52,71.87l-2.04,5.29c32.71,12.65,68.4,11.81,100.48-2.38,32.08-14.19,56.71-40.01,69.37-72.73Z"/>
        <path class="cls-45" d="m762.48,36.73c-4.03-18.47-13.01-35.65-26.06-49.53l-71.14,69.45,97.21-19.92Z"/>
        <path class="cls-45" d="m667.98,163.17c19.07-1.41,37.37-8.06,52.86-19.03l-58.77-80.51,5.92,99.54Z"/>
        <path class="cls-45" d="m734.42-14.85c-10.02-10.08-22.28-18.28-36.39-23.74h0s-32.62,84.35-32.62,84.35l-2.01,8.72,71.02-69.33Z"/>
        <path class="cls-45" d="m758.3,95.31c6.87-18.48,8.18-37.69,4.75-55.78l-97.38,19.96,92.63,35.83Z"/>
        <path class="cls-45" d="m665.13,163.35l-5.93-99.72-2.25,4-34.33,88.77h0c13.99,5.41,28.43,7.6,42.51,6.95Z"/>
        <path class="cls-45" d="m757.27,97.98l-92.79-35.89,58.67,80.37c14.75-11.07,26.75-26.17,34.12-44.48Z"/>
      </g>
      <g class="cls-105">
        <path class="cls-12" d="m485.69,158.96c2.01,23.33,12.98,44.47,30.89,59.55,17.91,15.07,40.62,22.27,63.95,20.27l-.32-3.77c-46.07,3.96-86.78-30.3-90.74-76.37-3.96-46.07,30.3-86.78,76.37-90.74l-.32-3.77c-23.33,2.01-44.47,12.98-59.55,30.89-15.07,17.91-22.27,40.62-20.27,63.95Z"/>
        <path class="cls-85" d="m518.27,194.7c7.83,9.89,18.26,17.56,30.15,22.05l22.29-62.5-52.44,40.45Z"/>
        <path class="cls-85" d="m537.85,91.18c-11.02,6.44-20.05,15.79-26.11,26.91l58.85,31.04-32.73-57.95Z"/>
        <path class="cls-85" d="m550.21,217.4c8.97,3.11,18.72,4.43,28.78,3.56h0s-5.17-60.14-5.17-60.14l-1.35-5.82-22.25,62.4Z"/>
        <path class="cls-85" d="m503.6,158.35c1.3,13.09,6.15,25,13.51,34.84l52.53-40.52-66.04,5.68Z"/>
        <path class="cls-85" d="m539.51,90.24l32.79,58.05.17-3.06-5.44-63.29h0c-9.97.86-19.27,3.78-27.52,8.3Z"/>
        <path class="cls-85" d="m503.43,156.45l66.16-5.69-58.74-30.99c-5.6,10.96-8.36,23.54-7.42,36.68Z"/>
      </g>
      <g class="cls-105">
        <path class="cls-73" d="m79.62,307.4c-7.98,18.37-8.33,38.76-.99,57.4,7.35,18.64,21.51,33.3,39.89,41.28l1.29-2.97c-36.29-15.77-52.99-58.13-37.22-94.42,15.77-36.29,58.13-52.99,94.42-37.22l1.29-2.97c-18.37-7.98-38.76-8.33-57.4-.99-18.64,7.35-33.3,21.51-41.28,39.89Z"/>
        <path class="cls-24" d="m89.59,347.57c1.87,10.63,6.59,20.65,13.72,28.87l42.22-37.97-55.94,9.1Z"/>
        <path class="cls-24" d="m146.47,277.61c-10.92.36-21.52,3.73-30.61,9.63l31.66,47.32-1.05-56.94Z"/>
        <path class="cls-24" d="m104.4,377.65c5.49,5.99,12.29,10.95,20.22,14.39h0s20.58-47.37,20.58-47.37l1.35-4.93-42.15,37.91Z"/>
        <path class="cls-24" d="m93.34,314.23c-4.35,10.38-5.55,21.32-4.01,31.72l56.04-9.12-52.02-22.6Z"/>
        <path class="cls-24" d="m148.1,277.58l1.06,57.05,1.38-2.23,21.66-49.86h0c-7.86-3.41-16.05-5-24.1-4.96Z"/>
        <path class="cls-24" d="m93.99,312.73l52.12,22.64-31.61-47.23c-8.68,5.97-15.88,14.31-20.51,24.59Z"/>
      </g>
      <g class="cls-105">
        <path class="cls-88" d="m46.28,79.51c19.2-24.6,27.66-55.21,23.84-86.18-3.82-30.97-19.48-58.6-44.08-77.8l-3.1,3.97c48.6,37.92,57.29,108.3,19.37,156.9-37.92,48.6-108.3,57.29-156.9,19.37l-3.1,3.97c24.6,19.2,55.21,27.66,86.18,23.84,30.97-3.82,58.6-19.48,77.8-44.08Z"/>
        <path class="cls-87" d="m46.88,15.05c1.32-16.77-1.9-33.71-9.45-48.89L-41.04,6.99,46.88,15.05Z"/>
        <path class="cls-87" d="m36.26-36.1c-5.94-11.17-14.27-21.3-24.88-29.58h0S-38.12-2.24-38.12-2.24l-3.95,6.91L36.26-36.1Z"/>
        <path class="cls-87" d="m28.24,63.86c10.61-13.97,16.67-29.99,18.4-46.28L-41.43,9.51,28.24,63.86Z"/>
        <path class="cls-87" d="m26.67,65.87L-43.11,11.42-13.84,94.97c15.41-5.63,29.52-15.4,40.51-29.1Z"/>
      </g>
    </g>
    <g>
      <g class="cls-105">
        <path class="cls-58" d="m1862.19,123.2c20.47,3.63,41.13-.92,58.18-12.83,17.04-11.91,28.43-29.74,32.07-50.21l-3.31-.59c-7.18,40.44-45.91,67.5-86.35,60.32-40.44-7.18-67.5-45.91-60.32-86.35l-3.31-.59c-3.63,20.47.92,41.13,12.83,58.18,11.91,17.05,29.74,28.43,50.21,32.07Z"/>
        <path class="cls-74" d="m1900.33,103.46c10.29-4.45,19.26-11.63,25.84-20.8l-48.5-33.47,22.66,54.28Z"/>
        <path class="cls-74" d="m1816.01,62.89c3,10.93,8.95,20.82,17.09,28.58l40.14-43.36-57.23,14.78Z"/>
        <path class="cls-74" d="m1927.14,81.26c4.72-6.98,8.09-15.04,9.66-23.87h0s-52.78-9.37-52.78-9.37l-5.3-.17,48.42,33.42Z"/>
        <path class="cls-74" d="m1865.78,107.7c11.53,1.89,22.86.46,32.99-3.59l-22.7-54.37-10.29,57.96Z"/>
        <path class="cls-74" d="m1815.59,61.25l57.33-14.81-2.58-.85-55.55-9.86h0c-1.55,8.75-1.18,17.4.8,25.52Z"/>
        <path class="cls-74" d="m1864.11,107.4l10.31-58.07-40.07,43.28c8.12,7.32,18.27,12.58,29.76,14.78Z"/>
      </g>
      <g class="cls-105">
        <path class="cls-39" d="m1643.27,336.13c16.31,9.03,35.16,11.18,53.08,6.03,17.92-5.14,32.76-16.96,41.8-33.27l-2.63-1.46c-17.84,32.21-58.57,43.9-90.78,26.06s-43.9-58.57-26.06-90.78l-2.63-1.46c-9.03,16.31-11.18,35.16-6.03,53.08,5.14,17.92,16.96,32.76,33.27,41.8Z"/>
        <path class="cls-67" d="m1681.36,330.47c10.02-.78,19.72-4.27,27.97-10.13l-31.41-42.49,3.44,52.63Z"/>
        <path class="cls-67" d="m1621.63,271.55c-.64,10.15,1.53,20.26,6.19,29.21l46.65-25.11-52.84-4.1Z"/>
        <path class="cls-67" d="m1710.55,319.44c6.04-4.55,11.24-10.4,15.14-17.44h0s-42.05-23.29-42.05-23.29l-4.45-1.69,31.36,42.42Z"/>
        <path class="cls-67" d="m1650.82,324.03c9.23,4.96,19.25,7.04,29.03,6.54l-3.45-52.72-25.58,46.17Z"/>
        <path class="cls-67" d="m1621.75,270.04l52.94,4.11-1.94-1.47-44.25-24.51h0c-3.86,6.97-6.06,14.42-6.74,21.88Z"/>
        <path class="cls-67" d="m1649.49,323.29l25.62-46.26-46.57,25.06c4.76,8.57,11.84,15.98,20.95,21.19Z"/>
      </g>
      <g class="cls-105">
        <path class="cls-49" d="m1476.07-105c-7.28-33.33-27.11-61.83-55.83-80.24-28.72-18.42-62.89-24.55-96.22-17.26l1.18,5.38c65.83-14.39,131.1,27.47,145.48,93.3,14.39,65.83-27.47,131.1-93.3,145.48l1.18,5.38c33.33-7.28,61.83-27.11,80.24-55.83,18.42-28.72,24.55-62.89,17.26-96.22Z"/>
        <path class="cls-38" d="m1413.44,2.75c14.72-11.38,26-26.59,32.68-43.79l-90.87-33.79,58.2,77.59Z"/>
        <path class="cls-38" d="m1411.21,4.42l-58.3-77.72.32,4.45,19.77,90.44h0c14.25-3.11,27.14-9.08,38.21-17.17Z"/>
      </g>
      <g class="cls-105">
        <path class="cls-97" d="m1121.57,470.35c5.8-18.69,3.97-38.51-5.14-55.83-9.11-17.31-24.42-30.04-43.11-35.84l-.94,3.02c36.91,11.45,57.62,50.8,46.17,87.71-11.45,36.91-50.8,57.62-87.71,46.17l-.94,3.02c18.69,5.8,38.51,3.97,55.83-5.14,17.31-9.11,30.04-24.42,35.84-43.11Z"/>
        <path class="cls-2" d="m1107.62,432.42c-2.94-10.13-8.6-19.35-16.39-26.57l-36.95,41.35,53.34-14.78Z"/>
        <path class="cls-2" d="m1059.84,506.38c10.56-1.51,20.49-5.9,28.69-12.6l-35.77-42.57,7.07,55.17Z"/>
        <path class="cls-2" d="m1090.05,404.79c-5.96-5.23-13.09-9.32-21.15-11.83h0s-14.95,48.18-14.95,48.18l-.79,4.93,36.89-41.28Z"/>
        <path class="cls-2" d="m1107.52,465.18c3.12-10.54,3.12-21.28.52-31.22l-53.43,14.81,52.91,16.42Z"/>
        <path class="cls-2" d="m1058.26,506.58l-7.09-55.27-1.1,2.31-15.73,50.71h0c7.99,2.48,16.11,3.15,23.92,2.25Z"/>
        <path class="cls-2" d="m1107.05,466.71l-53-16.45,35.7,42.5c7.79-6.72,13.89-15.58,17.3-26.05Z"/>
      </g>
      <g class="cls-105">
        <path class="cls-18" d="m826.88,219.15c11.14-27.54,10.9-57.77-.69-85.12-11.59-27.35-33.14-48.55-60.68-59.7l-1.8,4.45c54.39,22.01,80.73,84.17,58.72,138.57-22.01,54.39-84.17,80.73-138.57,58.72l-1.8,4.45c27.54,11.14,57.77,10.9,85.12-.69,27.35-11.59,48.55-33.14,59.7-60.68Z"/>
        <path class="cls-60" d="m810.58,159.99c-3.17-15.69-10.55-30.36-21.42-42.28l-61.16,57.87,82.58-15.59Z"/>
        <path class="cls-60" d="m728.89,265.82c16.17-.95,31.75-6.33,45.01-15.42l-48.71-68.95,3.7,84.37Z"/>
        <path class="cls-60" d="m787.5,115.94c-8.36-8.67-18.62-15.77-30.51-20.58h0s-28.74,71-28.74,71l-1.81,7.36,61.06-57.78Z"/>
        <path class="cls-60" d="m806.27,209.54c6.06-15.56,7.42-31.81,4.75-47.18l-82.72,15.62,77.97,31.56Z"/>
        <path class="cls-60" d="m726.48,265.93l-3.71-84.52-1.96,3.36-30.24,74.72h0c11.78,4.77,23.97,6.81,35.9,6.44Z"/>
        <path class="cls-60" d="m805.36,211.79l-78.11-31.61,48.63,68.83c12.64-9.18,23-21.81,29.48-37.22Z"/>
      </g>
      <g class="cls-105">
        <path class="cls-70" d="m354.63,35.78c-15.75,9.84-26.72,25.22-30.9,43.32-4.18,18.09-1.06,36.73,8.78,52.48l2.54-1.59c-19.44-31.1-9.94-72.22,21.16-91.66,31.1-19.44,72.22-9.94,91.66,21.16l2.54-1.59c-9.84-15.75-25.22-26.72-43.32-30.9-18.09-4.18-36.73-1.06-52.48,8.78Z"/>
        <path class="cls-65" d="m341.15,71.7c-4.16,9.1-5.81,19.23-4.68,29.25l52.19-6.83-47.5-22.43Z"/>
        <path class="cls-65" d="m421.33,48.14c-8.53-5.46-18.39-8.45-28.43-8.72l-.67,52.77,29.1-44.04Z"/>
        <path class="cls-65" d="m336.66,102.45c1.04,7.45,3.63,14.81,7.88,21.61h0s40.6-25.37,40.6-25.37l3.62-3.06-52.1,6.82Z"/>
        <path class="cls-65" d="m361.52,48.21c-8.78,5.64-15.43,13.37-19.72,22.12l47.58,22.46-27.86-44.59Z"/>
        <path class="cls-65" d="m422.59,48.97l-29.15,44.12,2.22-.98,42.73-26.7h0c-4.21-6.73-9.63-12.25-15.8-16.44Z"/>
        <path class="cls-65" d="m362.81,47.41l27.91,44.66.67-52.67c-9.76,0-19.64,2.59-28.58,8.01Z"/>
      </g>
      <g class="cls-105">
        <path class="cls-96" d="m377.55,200.69c27.51-18.49,46.18-46.58,52.56-79.11,6.38-32.53-.29-65.59-18.78-93.1l-4.44,2.99c36.52,54.34,22.02,128.26-32.32,164.78-54.34,36.52-128.26,22.02-164.78-32.32l-4.44,2.99c18.49,27.51,46.58,46.17,79.11,52.55,32.53,6.38,65.59-.29,93.1-18.77Z"/>
        <path class="cls-43" d="m399.46,135.83c6.88-16.49,9.22-34.66,6.62-52.47l-92.7,15.27,86.07,37.2Z"/>
        <path class="cls-43" d="m257.82,182.6c15.54,9.23,33.31,13.99,51.24,13.88l-1.93-94.18-49.31,80.3Z"/>
        <path class="cls-43" d="m405.66,80.69c-2.31-13.24-7.36-26.21-15.34-38.09h0s-70.93,47.67-70.93,47.67l-6.28,5.67,92.54-15.25Z"/>
        <path class="cls-43" d="m364.51,178.94c15.32-10.59,26.74-24.76,33.88-40.63l-86.22-37.26,52.35,77.89Z"/>
        <path class="cls-43" d="m255.52,181.19l49.4-80.44-3.91,1.88-74.65,50.17h0c7.91,11.76,17.9,21.28,29.16,28.39Z"/>
        <path class="cls-43" d="m362.27,180.44l-52.44-78.03,1.93,94.01c17.42-.59,34.89-5.79,50.51-15.98Z"/>
      </g>
      <g class="cls-105">
        <path class="cls-42" d="m146.48,346.1c27.43,7.39,56.1,3.65,80.72-10.52,24.62-14.17,42.25-37.08,49.64-64.51l-4.43-1.19c-14.59,54.18-70.55,86.39-124.73,71.79-54.18-14.59-86.39-70.55-71.79-124.73l-4.43-1.19c-7.39,27.43-3.65,56.1,10.52,80.72,14.17,24.62,37.08,42.25,64.51,49.64Z"/>
        <path class="cls-47" d="m200.75,323.78c14.53-4.83,27.6-13.53,37.65-25.23l-62.02-51.35,24.37,76.58Z"/>
        <path class="cls-47" d="m90.83,258.5c2.77,15.24,9.69,29.41,19.85,40.94l59.81-54.23-79.66,13.29Z"/>
        <path class="cls-47" d="m239.89,296.77c7.26-8.94,12.81-19.51,16-31.34h0s-70.72-19.05-70.72-19.05l-7.19-.87,61.92,51.26Z"/>
        <path class="cls-47" d="m153.22,325.43c15.47,3.95,31.05,3.36,45.33-.95l-24.41-76.71-20.92,77.67Z"/>
        <path class="cls-47" d="m90.45,256.22l79.8-13.31-3.41-1.47-74.43-20.05h0c-3.16,11.73-3.69,23.55-1.95,34.83Z"/>
        <path class="cls-47" d="m150.98,324.83l20.96-77.8-59.7,54.13c10.18,10.93,23.37,19.3,38.75,23.67Z"/>
      </g>
      <g class="cls-105">
        <path class="cls-9" d="m-16.28,193.13c-16.01,7.7-28.05,21.18-33.92,37.94-5.87,16.76-4.86,34.81,2.84,50.82l2.59-1.24c-15.21-31.61-1.87-69.71,29.74-84.93,31.61-15.21,69.71-1.87,84.93,29.74l2.59-1.24c-7.7-16.01-21.18-28.05-37.94-33.92-16.76-5.87-34.81-4.86-50.82,2.84Z"/>
        <path class="cls-16" d="m-32.87,225.86c-4.91,8.22-7.54,17.68-7.53,27.32l50.33-1.01-42.81-26.31Z"/>
        <path class="cls-16" d="m45.84,211.88c-7.54-6.08-16.6-9.97-26.12-11.28l-6.18,50.1,32.29-38.82Z"/>
        <path class="cls-16" d="m-40.37,254.63c.21,7.2,1.9,14.47,5.22,21.37h0s41.27-19.86,41.27-19.86l3.76-2.53-50.25,1.01Z"/>
        <path class="cls-16" d="m-11.03,205.67c-8.94,4.45-16.08,11.09-21.08,18.96l42.88,26.36-21.81-45.32Z"/>
        <path class="cls-16" d="m46.95,212.81l-32.35,38.89,2.22-.7,43.43-20.9h0c-3.29-6.84-7.87-12.66-13.3-17.29Z"/>
        <path class="cls-16" d="m-9.73,205.04l21.85,45.4,6.17-50.01c-9.28-1.02-18.95.4-28.01,4.61Z"/>
      </g>
    </g>
  </g>
</svg>