<?xml version="1.0" encoding="UTF-8"?>
<svg xmlns="http://www.w3.org/2000/svg" viewBox="0 0 40.95 10.26">
  <defs>
    <style>
      .cls-1 {
        fill: #fff;
      }

      .cls-2 {
        fill: #f3e4ca;
      }

      .cls-3, .cls-4 {
        fill: none;
      }

      .cls-5 {
        fill: #b1b594;
      }

      .cls-4 {
        stroke: #4d5453;
        stroke-miterlimit: 10;
        stroke-width: 0px;
      }

      .cls-6 {
        fill: #4d5453;
      }
    </style>
  </defs>
  <g id="Camada_1" data-name="Camada 1">
    <rect class="cls-1" y=".02" width="40.93" height="10.24"/>
  </g>
  <g id="Camada_2" data-name="Camada 2">
    <g>
      <circle class="cls-6" cx="20.47" cy="5.13" r="4.98"/>
      <g>
        <path class="cls-3" d="m14.39,6.45s-.09.09-.13.14c-.08.11-.16.22-.25.32-.1.11-.22.21-.33.32,0,.01.01.02.02.03.2-.04.41-.08.61-.12.11-.02.2-.06.29-.1-.02-.02-.04-.03-.06-.05-.09-.13-.14-.32-.16-.54Z"/>
        <path class="cls-3" d="m14.32,7.22c-.24.04-.49.09-.73.14-.02,0-.05.01-.07.02,0,.01,0,.02.01.02.35.03.71.1,1.06.03.15-.03.29-.1.43-.17.01,0,.02-.01.04-.02-.15,0-.27-.06-.37-.14-.11.06-.23.11-.36.13Z"/>
        <path class="cls-3" d="m10.98,6.86c-.17.03-.35.06-.52.1.03.01.06.03.09.03.17.02.34.04.51.07.13.02.26.02.38.02-.11-.06-.22-.14-.32-.24-.05,0-.09.01-.14.02Z"/>
        <path class="cls-3" d="m6.38,6.09c-.09-.02-.18-.03-.28-.05.21.15.4.3.61.43.11.07.24.11.35.16.06.02.11.05.17.07.03-.09.05-.19.05-.34,0,0,0,0,0,0,0,0,0,0-.01,0-.3-.09-.59-.18-.89-.26Z"/>
        <path class="cls-3" d="m6.87,6.14c.14.04.28.08.42.13,0-.03,0-.05,0-.08-.14-.02-.28-.04-.42-.05Z"/>
        <path class="cls-3" d="m10.85,6.77s.01.02.02.04c.07,0,.13-.02.2-.03-.03-.03-.05-.06-.08-.1-.05.03-.09.06-.14.09Z"/>
        <path class="cls-3" d="m7.93,6.18s.04,0,.05,0c.29-.03.59-.06.86-.2.11-.06.22-.12.33-.19.18-.12.36-.26.54-.39.07-.05.12-.11.21-.19-.39,0-.75,0-1.11,0-.11,0-.22.03-.31.07-.2.09-.39.19-.58.29,0,.04,0,.08,0,.12,0,.07,0,.23.01.47Z"/>
        <path class="cls-3" d="m6.79,6.63c.02.06.04.1.05.15.02.07.04.14.05.22.12-.04.22-.08.27-.15.01-.01.02-.05.03-.07-.03-.01-.06-.03-.09-.04-.1-.05-.21-.07-.32-.1Z"/>
        <path class="cls-3" d="m7.2,5.93c-.1.04-.21.08-.33.12.15.02.29.05.43.07,0-.08,0-.15,0-.23-.04.02-.07.03-.11.05Z"/>
        <path class="cls-3" d="m6.95,7.16c.03.09.06.18.11.27.11.18.21.35.38.46.11.07.23.14.35.21.19.12.37.24.57.36,0-.05,0-.09-.02-.13-.03-.16-.08-.31-.1-.47-.03-.29-.17-.52-.38-.7h-.7c-.09,0-.16,0-.22,0Z"/>
        <path class="cls-3" d="m12.36,5.33c.14,0,.25-.03.33-.08.08-.05.11-.14.11-.27,0-.2-.07-.37-.21-.52-.14-.15-.3-.22-.48-.22-.17,0-.34.08-.51.25-.17.17-.28.45-.33.83.31.01.61.02.9.02h.19Z"/>
        <path class="cls-3" d="m11.61,6.7c.25-.05.47-.15.69-.29.22-.14.38-.33.53-.54-.39.07-.78.14-1.12.34-.11.06-.21.13-.32.2.04.08.09.16.15.23.02.02.04.04.06.06Z"/>
        <path class="cls-3" d="m8.14,6.92c.08.06.18.09.27.1.03,0,.04,0,.06.01-.15-.16-.33-.28-.51-.39,0,.04.01.07.02.09.02.07.08.13.16.19Z"/>
        <path class="cls-3" d="m31.65,6.3s-.05,0-.07.03c.03,0,.06,0,.1,0,0,0,0-.02,0-.03,0,0-.01,0-.02,0Z"/>
        <path class="cls-3" d="m30.79,6.99c.06.05.12.07.18.07.06,0,.1.01.1.04,0,.04-.05.06-.16.06h-.24c.13.14.25.3.42.41.2.13.44.17.67.2.19.03.38.04.57.06.06,0,.12,0,.18,0,0-.01.02-.03.02-.04-.08-.07-.17-.14-.24-.21-.13-.13-.25-.28-.38-.41-.21-.21-.48-.34-.75-.43-.15-.05-.3-.08-.46-.09,0,.08,0,.14,0,.17,0,.06.04.12.1.17Z"/>
        <path class="cls-3" d="m30.16,6.66s.03.04.04.05c0,0,0,0,0,0,0-.02,0-.04,0-.06-.01,0-.03,0-.05.01Z"/>
        <path class="cls-3" d="m29.74,6.71c-.19.05-.4.07-.6.11.24.08.49.13.71.23,0,0,.02,0,.03,0,.17-.02.27-.09.3-.2,0,0,0-.03,0-.04-.12-.09-.26-.15-.45-.11Z"/>
        <path class="cls-3" d="m32.16,5.5s0,.03,0,.04c.02-.02.05-.03.07-.05h-.07Z"/>
        <path class="cls-3" d="m31.59,5.52c-.27.3-.57.55-.91.76,0,.07,0,.13,0,.19.27-.05.5-.18.73-.35.06-.05.12-.09.18-.14-.01-.08-.02-.16-.02-.24,0-.08.01-.15.02-.22Z"/>
        <path class="cls-3" d="m31.44,6.46c.11.02.22.04.33.06-.02-.03-.03-.06-.05-.09-.08,0-.16,0-.24.01-.01,0-.03,0-.05.02Z"/>
        <path class="cls-3" d="m34.23,4.93s-.04,0-.06,0c0,.01,0,.02.01.04.02-.01.03-.03.05-.04Z"/>
        <path class="cls-3" d="m33.18,7c.12,0,.24-.03.36-.07-.07-.03-.15-.07-.22-.1-.17-.08-.32-.19-.5-.25-.17-.06-.34-.1-.51-.12.04.07.08.13.13.19.2.23.44.35.74.35Z"/>
        <path class="cls-3" d="m7.95,4.77c.35.01.55.02.59.02.24,0,.47-.04.68-.12.21-.08.37-.23.47-.45s.15-.43.15-.64c0-.27-.09-.49-.27-.68-.18-.19-.51-.28-.98-.28-.24,0-.46.03-.64.08,0,.09,0,.14,0,.16v.82s0,.87,0,.87c0,.04,0,.12,0,.23Z"/>
        <path class="cls-3" d="m31.37,6.26c.09,0,.18-.01.28-.02-.02-.05-.03-.1-.04-.15-.08.06-.16.12-.24.18Z"/>
        <path class="cls-3" d="m28.12,6.85s-.02.02-.03.03c-.06.06-.13.1-.19.16,0,0,0,.01,0,.02.08-.02.14-.04.18-.08.02-.02.03-.06.04-.12Z"/>
        <path class="cls-3" d="m28.22,5.53c-.09.16-.15.32-.19.5-.06.3-.02.61-.16.89,0,0,.02.01.02.02.09-.08.18-.16.26-.25.01-.08.02-.18.03-.3.02-.24.03-.53.04-.87Z"/>
        <path class="cls-3" d="m30.2,5.19c-.24.19-.44.41-.59.68-.13.23-.28.46-.42.69-.03.04-.06.08-.08.12.05,0,.07-.01.1-.03.32-.13.62-.29.89-.51.05-.04.09-.09.14-.14,0-.07,0-.13,0-.2,0-.24-.01-.43-.03-.61Z"/>
        <path class="cls-3" d="m26.16,7.1s-.04.06-.1.06c-.01.04-.03.08-.04.12-.02.05-.04.09-.06.14,0,0,.02.02.02.02.07-.05.15-.1.22-.14.32-.19.49-.48.58-.82.04-.15.07-.31.15-.45.03-.05.05-.1.07-.15l-.03-.02c-.14.12-.29.24-.42.36-.18.17-.3.37-.38.6-.03.07-.05.15-.07.23.04,0,.06.02.06.05Z"/>
        <path class="cls-3" d="m32.15,5.67s0,.09,0,.13c0,.12.02.24.04.35.5-.13.96-.35,1.38-.66l-1.19.02c-.08.05-.16.11-.23.17Z"/>
        <path class="cls-3" d="m29.53,4.29c-.2,0-.38.08-.54.23s-.24.37-.27.66c0,.04,0,.07-.01.11-.02.29-.04.62-.04,1.02,0,.03,0,.06,0,.1,0,0,.01-.01.02-.02.07-.09.14-.18.22-.26.01,0,.02.01.03.02-.05.09-.08.19-.14.28-.03.06-.08.11-.12.16,0,.1.01.18.02.24,0,0,0,0,0,0,.33-.13.47-.42.64-.69.14-.23.27-.46.43-.67.1-.13.24-.23.37-.33.01,0,.03-.02.04-.03-.03-.24-.08-.42-.15-.53-.13-.18-.29-.28-.5-.28Z"/>
        <path class="cls-3" d="m30.83,4.89c.02-.06.04-.12.08-.21-.09.06-.16.11-.25.17.02.1.03.22.04.35.04-.11.09-.21.13-.32Z"/>
        <path class="cls-3" d="m33.28,5c.13-.03.27-.04.41-.06,0-.18-.07-.35-.2-.49-.14-.15-.3-.22-.48-.22-.17,0-.34.08-.51.25-.17.17-.28.45-.33.83.12,0,.24,0,.36,0,.1-.06.2-.13.3-.18.14-.07.3-.11.46-.14Z"/>
        <path class="cls-3" d="m32.67,5.33c.13,0,.26,0,.39,0h.19c.14-.02.25-.04.33-.09.06-.04.09-.11.1-.2-.23.05-.47.08-.7.15-.11.03-.21.08-.31.13Z"/>
        <path class="cls-3" d="m29.4,6.69c.05-.01.11-.03.16-.04.21-.02.41-.07.59-.17.02-.01.04-.03.06-.04,0-.09,0-.18,0-.29-.25.22-.53.37-.82.54Z"/>
        <path class="cls-3" d="m29.17,7.7c.34.32.76.42,1.2.39-.21-.18-.43-.38-.66-.55-.19-.15-.38-.29-.63-.34-.02,0-.03,0-.05-.01-.01,0-.02,0-.04,0h-.42s.08.04.12.07c.17.14.33.29.49.44Z"/>
        <path class="cls-3" d="m12.27,7.74c.09.16.16.34.27.48.13.15.29.27.46.38.35.23.72.45,1.06.67-.27-.8-.81-1.38-1.59-1.74-.13-.06-.27-.11-.4-.17.07.14.13.27.2.39Z"/>
        <path class="cls-3" d="m9.3,6.98c.22.21.33.48.48.73.18.31.42.55.72.73.15.09.31.18.48.26.13.06.27.1.41.16-.21-.54-.51-1.02-.96-1.38-.37-.3-.81-.5-1.28-.61.05.04.1.08.15.12Z"/>
        <path class="cls-3" d="m14.86,8.41c.06.11.12.21.19.31.09.14.23.22.37.29.15.06.31.1.5.16-.11-.18-.21-.32-.3-.47-.08-.13-.14-.26-.23-.38-.15-.2-.31-.38-.54-.5-.13-.07-.26-.13-.38-.18.13.26.26.52.39.78Z"/>
        <path class="cls-3" d="m25.97,7.64s.07.04.11.06c.28.18.47.45.72.66.13.11.27.21.42.28.27.13.56.09.84.11-.15-.18-.32-.34-.45-.53-.2-.29-.48-.47-.81-.54-.27-.06-.55-.05-.83-.08v.04Z"/>
        <path class="cls-3" d="m34.11,6.56s.06.03.06.09c-.07.12-.18.23-.32.32.14.05.29.08.44.08.21,0,.43-.06.64-.1.22-.04.44-.07.66-.11.03,0,.05,0,.08-.01-.14-.1-.28-.19-.43-.26-.16-.07-.32-.12-.49-.18-.26-.09-.53-.05-.8-.02-.28.03-.56.08-.84.13-.04,0-.09,0-.16.01.22.12.41.22.59.32.03.02.06.03.09.04.11-.06.23-.13.33-.23.07-.06.12-.1.14-.1Z"/>
        <path class="cls-6" d="m6.7,7.1s0,.04.03.05c0,0,.05,0,.13,0-.02-.04-.03-.09-.05-.13-.07.02-.11.04-.11.08Z"/>
        <path class="cls-6" d="m6.9,7c.01.06.03.11.05.16.06,0,.13,0,.22,0h.7s-.08-.07-.12-.1c-.17-.11-.36-.2-.54-.29-.01.02-.02.06-.03.07-.05.06-.15.11-.27.15Z"/>
        <path class="cls-6" d="m8.47,7.04s-.03,0-.06-.01c-.1,0-.19-.04-.27-.1s-.14-.13-.16-.19c0-.02-.01-.05-.02-.09-.06-.04-.12-.08-.18-.11-.15-.08-.32-.12-.49-.17,0,0,0,0,0,0,0,.15-.03.26-.05.34.18.07.36.14.52.25.09.06.17.13.25.21h.14c.22,0,.34,0,.38,0,.02,0,.02-.02.03-.04-.02-.02-.04-.04-.06-.07,0,0-.02-.01-.02-.02Z"/>
        <path class="cls-6" d="m7.92,5.49s0-.06,0-.09c.01-.21.02-.37.02-.48.22.01.41.02.57.02.68,0,1.18-.1,1.52-.31s.51-.52.51-.94c0-.35-.13-.64-.39-.87-.26-.23-.76-.35-1.5-.35h-1.13s-.7,0-.7,0c-.07,0-.11.02-.11.06s.08.07.23.1c.14.03.24.09.29.19.05.1.07.33.07.7v1.02s0,.95,0,.95c0,.11,0,.2,0,.3.01,0,.03,0,.04-.01.2-.09.39-.19.58-.29Zm.02-2.63s0-.07,0-.16c.18-.05.4-.08.64-.08.47,0,.8.09.98.28.18.19.27.41.27.68,0,.21-.05.42-.15.64s-.25.36-.47.45c-.21.08-.44.12-.68.12-.05,0-.25,0-.59-.02,0-.11,0-.18,0-.23v-.87s0-.82,0-.82Z"/>
        <path class="cls-6" d="m7.93,6.18c0-.24-.01-.39-.01-.47,0-.04,0-.08,0-.12-.04.02-.09.04-.13.07-.16.08-.32.15-.48.23,0,.08,0,.16,0,.23.05,0,.1.02.15.02.16.02.32.05.48.04Z"/>
        <path class="cls-6" d="m7.57,6.21c-.09-.01-.18-.02-.27-.03,0,.03,0,.05,0,.08.21.07.43.13.64.18,0-.06,0-.12,0-.2,0,0,0,0,0,0-.12.01-.24-.02-.35-.03Z"/>
        <path class="cls-6" d="m11.75,7.19c.14.02.28.02.42.04.24-.01.46-.06.66-.16.22-.11.37-.25.46-.42,0-.06-.02-.09-.06-.09-.02,0-.06.03-.14.1-.2.18-.4.29-.63.32-.26.1-.53.13-.81.18.03.01.06.03.09.03Z"/>
        <path class="cls-6" d="m11.37,6.33c-.07-.16-.11-.34-.11-.54,0-.07,0-.17.01-.29l1.78-.03c.17,0,.26-.01.27-.04s.02-.06.02-.11c0-.33-.13-.61-.39-.86s-.55-.36-.87-.36c-.34,0-.66.16-.96.47s-.45.7-.45,1.16c0,.34.09.63.25.88.03-.02.07-.04.1-.07.11-.08.22-.15.33-.22Zm.24-1.84c.17-.17.34-.25.51-.25.19,0,.35.07.48.22.14.15.21.32.21.52,0,.13-.04.22-.11.27-.08.05-.19.08-.33.08h-.19c-.29.01-.59,0-.9-.01.05-.38.16-.66.33-.83Z"/>
        <path class="cls-6" d="m11.12,6.84c.1.1.21.17.32.24.11,0,.23-.02.35-.04.11-.02.22-.04.33-.05-.17-.03-.32-.11-.45-.22-.1.02-.2.04-.31.05-.08,0-.16.02-.24.03Z"/>
        <path class="cls-6" d="m11.61,6.7s-.04-.03-.06-.06c-.06-.07-.11-.15-.15-.23-.14.09-.28.18-.42.27.02.03.05.07.08.1.09-.02.19-.03.28-.04.09,0,.18-.02.27-.04Z"/>
        <path class="cls-6" d="m14.87,6.02s0-.02,0-.03c0-.51.02-1.02.05-1.55.27-.02.48-.03.65-.04.01-.09.02-.18.04-.26h-.69s0-.54,0-.54c0-.12,0-.23.01-.32,0-.02,0-.05,0-.07,0-.07-.02-.1-.07-.1s-.07.04-.08.12c-.04.31-.17.56-.4.73-.23.17-.39.28-.49.31-.06.02-.09.04-.09.07,0,.03.03.05.08.05h.21c.21.03.32.03.34.04-.04.85-.06,1.45-.06,1.8,0,.04,0,.07.01.11,0,0,.01-.02.02-.02.13-.14.3-.22.47-.3Z"/>
        <path class="cls-6" d="m15.84,6.96s-.04-.1-.05-.15c-.14.08-.26.12-.38.12-.15,0-.26-.05-.35-.14-.03.04-.06.07-.1.11-.08.08-.18.15-.28.2.1.08.22.13.37.14.17-.09.34-.2.51-.3,0,.08-.08.15-.29.28.17-.02.32-.07.45-.16.05-.04.08-.07.12-.1Z"/>
        <path class="cls-6" d="m15.01,6.75s0,0,0,0c-.08-.11-.13-.33-.14-.66-.19.09-.34.21-.48.36.02.22.07.41.16.54.02.02.04.03.06.05.11-.06.22-.13.32-.21.03-.03.05-.05.08-.08Z"/>
        <path class="cls-6" d="m25.26,2.7c.5,0,.83.03.99.06s.31.09.45.19.26.24.39.44c.07.11.12.18.14.2.02.02.05.03.08.03.05,0,.07-.03.07-.09,0-.02,0-.04,0-.06-.01-.09-.03-.23-.04-.45,0-.19-.03-.36-.06-.53-.34,0-.61,0-.8.03-.21.02-.67.02-1.38.02-.14,0-.26,0-.38,0,.21.35.39.72.52,1.11,0-.35.02-.67.04-.96Z"/>
        <path class="cls-6" d="m25.09,7.17c.07-.07.13-.13.2-.2.05-.04.1-.09.14-.13-.06-.06-.1-.13-.12-.21-.01-.05-.02-.12-.03-.21-.07.26-.15.51-.26.75h.07Z"/>
        <path class="cls-6" d="m26.16,7.1s-.02-.04-.06-.05c-.01.04-.03.08-.04.11.06,0,.1-.03.1-.06Z"/>
        <path class="cls-6" d="m25.96,7.17s.03-.09.04-.13c-.25,0-.43-.06-.54-.17-.07.11-.14.21-.22.3h.72Z"/>
        <path class="cls-6" d="m30.2,6.65s0,.05,0,.06c.15.14.3.27.44.41.01.01.02.03.03.04h.24c.1,0,.16-.02.16-.06,0-.03-.03-.04-.1-.04-.06,0-.12-.03-.18-.07s-.09-.1-.1-.17c0-.03,0-.09,0-.17-.15-.02-.31-.02-.47,0,0,0,0,0-.01,0Z"/>
        <path class="cls-6" d="m30.18,6.81s0,.03,0,.04c-.03.11-.13.18-.3.2-.01,0-.02,0-.03,0,.04.02.08.04.12.06,0,.01,0,.02-.01.03-.05-.01-.11-.03-.16-.04,0,0,0,0,0,0,0,.03.02.05.06.06h.7c-.06-.06-.11-.13-.18-.19-.06-.06-.13-.12-.2-.17Z"/>
        <path class="cls-6" d="m30.34,6.48c.12.01.23,0,.34-.01,0-.06,0-.12,0-.19-.11.07-.22.14-.34.2Z"/>
        <path class="cls-6" d="m28.51,5.97c.07-.34.09-.69.13-1.03-.01,0-.03-.01-.04-.02-.1.16-.2.32-.3.47-.03.04-.05.09-.07.13,0,.34-.02.63-.04.87-.01.12-.02.21-.03.3,0,0,0,0,.01-.01.17-.21.3-.46.35-.72Z"/>
        <path class="cls-6" d="m28.6,6.69c-.07.08-.16.15-.23.22,0,.01.02.03.03.04.1-.04.2-.09.31-.13-.01-.06-.02-.14-.02-.24-.03.03-.05.07-.08.1Z"/>
        <path class="cls-6" d="m27.85,7.16s-.03,0-.05.01c.02,0,.04.01.06.01.11,0,.25-.01.4-.01h.11c-.16-.06-.34-.06-.52-.02Z"/>
        <path class="cls-6" d="m28.66,4.67s.03-.05.04-.07c0-.14,0-.32,0-.52v-1.77c-.26.02-.51.02-.74.02-.14,0-.21,0-.23,0s-.02.01-.02.03c0,.03.03.06.1.07.11.02.2.1.28.23.08.13.12.34.13.63,0,.29.01.9.01,1.82,0,.07,0,.14,0,.2,0,0,0,0,0-.01.15-.21.29-.42.44-.64Z"/>
        <path class="cls-6" d="m28.57,6.98c.06,0,.09.01.12.01.07,0,.14.02.21.04-.06-.02-.11-.05-.13-.09-.04,0-.09,0-.13,0-.01,0-.02.01-.07.04Z"/>
        <path class="cls-6" d="m28.74,4.97c-.01.07-.02.14-.02.22.03-.29.12-.51.27-.66s.34-.23.54-.23.38.09.5.28c.07.1.12.28.15.53.15-.11.31-.21.46-.32-.04-.17-.11-.31-.19-.4-.17-.18-.41-.27-.72-.27s-.6.12-.85.36c0,.01,0,.03,0,.04-.04.15-.11.3-.13.46Z"/>
        <path class="cls-6" d="m30.22,6.15c0,.11,0,.2,0,.29.16-.09.31-.19.47-.29l.02-.68c-.11.25-.25.48-.46.67,0,0-.01,0-.02.01Z"/>
        <path class="cls-6" d="m29.03,7.18c-.09-.02-.18-.05-.27-.07-.1-.02-.2-.03-.3-.04v.04s.06.05.1.07h.42s.03,0,.04,0Z"/>
        <path class="cls-6" d="m30.7,5.21c0-.13-.02-.25-.04-.35-.13.09-.26.18-.38.26-.03.02-.05.05-.08.07.02.17.03.37.03.61,0,.08,0,.14,0,.2.14-.14.26-.29.33-.47.05-.11.09-.22.14-.32Z"/>
        <path class="cls-6" d="m28.71,5.29c-.01.14-.02.28-.04.42-.03.26-.13.49-.24.73-.08.16-.19.29-.31.41-.01.06-.03.1-.04.12-.03.04-.1.07-.18.08,0,0,0,.01,0,.02.08-.03.17-.05.24-.09.21-.15.38-.35.53-.57,0-.03,0-.06,0-.1,0-.4.01-.74.04-1.02Z"/>
        <path class="cls-6" d="m31.67,6.33c.2,0,.39,0,.59.01-.02-.04-.04-.08-.05-.12-.18.03-.37.05-.55.08,0,0,0,.02,0,.03Z"/>
        <path class="cls-6" d="m34.17,6.65c0-.06-.02-.09-.06-.09-.02,0-.06.03-.14.1-.11.1-.22.17-.33.23.07.03.14.06.21.09.14-.09.25-.2.32-.32Z"/>
        <path class="cls-6" d="m33.18,7c-.29,0-.54-.12-.74-.35-.05-.06-.1-.12-.13-.19-.2-.03-.39-.04-.59-.03.01.03.03.06.05.09.36.09.68.24.93.55-.28-.15-.54-.34-.86-.43.04.06.09.12.14.18.27.28.61.43,1,.43.27,0,.51-.06.73-.17.02-.01.04-.03.06-.04-.08-.03-.16-.06-.24-.1-.12.04-.23.07-.36.07Z"/>
        <path class="cls-6" d="m33.25,5.33h-.19c-.13.01-.26,0-.39,0-.08.04-.16.09-.24.14-.01,0-.03.02-.04.03l1.19-.02c.21-.15.41-.32.6-.51,0-.01,0-.02-.01-.04,0,0-.02,0-.03,0-.14.03-.28.07-.41.1-.01,0-.03,0-.04,0-.01.09-.04.16-.1.2-.08.05-.19.08-.33.08Z"/>
        <path class="cls-6" d="m33.71,5.48h.24c.17,0,.26-.02.27-.04s.02-.06.02-.11c0-.09-.01-.17-.03-.26-.15.12-.29.25-.45.37-.02.01-.04.02-.06.04Z"/>
        <path class="cls-6" d="m32.15,5.79s0-.08,0-.13c-.07.06-.15.11-.22.17-.11.08-.22.16-.33.24.01.05.03.1.04.15.19-.02.37-.05.55-.09-.03-.11-.04-.22-.04-.35Z"/>
        <path class="cls-6" d="m31.87,5.19c-.09.12-.18.22-.28.33,0,.07-.02.15-.02.22,0,.08,0,.16.02.24.19-.14.37-.29.56-.43,0,0,0,0,0,0,0-.02,0-.03,0-.04h.07c.09-.06.19-.12.29-.18-.12,0-.24,0-.36,0,.05-.38.16-.66.33-.83.17-.17.34-.25.51-.25.19,0,.35.07.48.22.13.14.19.3.2.49.07-.01.15-.02.22-.04.07-.02.15-.04.22-.07-.06-.13-.15-.25-.27-.37-.26-.24-.55-.36-.87-.36-.34,0-.66.16-.96.47-.22.23-.36.5-.42.82.06-.06.13-.12.19-.18.01-.01.03-.01.08-.02Z"/>
        <path class="cls-6" d="m32.54,3.81l.84-.64c.23-.18.35-.32.35-.45,0-.15-.08-.22-.23-.22-.08,0-.16.03-.22.08s-.15.16-.26.31l-.55.77c-.07.09-.1.15-.1.17,0,.03.02.05.05.05.02,0,.06-.02.12-.06Z"/>
        <path class="cls-5" d="m15.92,7.71c-.11,0-.22-.04-.33-.06.17-.04.33-.07.5-.08.01,0,.02,0,.03,0-.01-.02-.03-.05-.04-.07-.06,0-.12.01-.18.01-.01,0-.03,0-.04,0,0-.01,0-.03,0-.03.06-.03.11-.07.16-.1-.01-.02-.02-.04-.03-.06-.08.07-.18.12-.29.15-.13.03-.25.08-.37.13-.09.04-.17.05-.26,0-.02-.01-.05,0-.07,0-.12-.01-.24-.02-.37-.04.18-.09.36-.16.52-.25.05-.03.09-.05.13-.08-.06,0-.11.02-.17.02-.02,0-.03,0-.04,0-.01,0-.02.02-.04.02-.14.07-.28.14-.43.17-.35.07-.7,0-1.06-.03,0,0,0-.01-.01-.02.03,0,.05-.02.07-.02.24-.05.48-.1.73-.14.13-.02.25-.07.36-.13-.02-.02-.05-.03-.07-.06-.09.05-.19.08-.29.1-.2.04-.41.08-.61.12,0-.01-.01-.02-.02-.03.11-.1.22-.2.33-.32.09-.1.17-.21.25-.32.04-.05.09-.09.13-.14,0-.04,0-.07-.01-.11-.14.15-.27.31-.4.46-.12.13-.23.28-.38.39-.24.17-.52.17-.79.13-.21-.03-.41-.07-.62-.09,0,0-.01,0-.02,0-.03,0-.05,0-.07,0-.24,0-.46-.06-.65-.17-.13,0-.25,0-.38-.02-.17-.02-.34-.04-.51-.07-.03,0-.06-.02-.09-.03.18-.05.35-.08.52-.1.05,0,.09-.01.14-.02,0,0-.02-.01-.03-.02-.01-.01-.02-.02-.03-.04-.06.01-.13.02-.2.03,0-.01-.01-.02-.02-.04.05-.03.09-.06.14-.09-.02-.02-.04-.05-.06-.07-.19.13-.4.23-.64.25-.25.01-.49.01-.74-.05-.25-.07-.51-.08-.76-.12-.13-.02-.26-.07-.39-.1.24-.03.47-.05.71-.08.28-.04.51-.13.64-.25-.48.12-.95.27-1.45.24-.12,0-.24-.03-.35-.05,0,.08.01.15.02.2.18.11.36.24.51.39.06.01.11.03.11.06,0,.01-.01.01-.02.02.12.13.25.26.33.42.04.08.1.16.15.23,0,0,.02-.01.02-.02-.16-.53-.56-.85-1-1.16.02,0,.03-.02.04-.01.2.05.4.09.59.14.17.05.33.14.47.25.23.19.35.46.49.71.11.2.25.37.41.53.21.21.46.35.72.48.26.13.54.24.82.36,0-.03.01-.07,0-.09-.11-.13-.17-.28-.24-.43-.12-.27-.28-.51-.47-.73-.21-.24-.44-.45-.71-.61-.17-.1-.34-.19-.54-.29.19.03.35.06.51.09.16.04.32.07.47.13.15.06.29.14.43.21.13.07.26.15.4.22,0-.01.02-.03.02-.04-.2-.14-.39-.28-.59-.41.04,0,.07.01.11.02.21.04.43.06.64.11.12.03.23.09.33.16.17.13.22.33.29.51.06.16.16.29.27.41.22.24.51.39.79.55.35.2.67.43.96.7.02.02.06.03.09.04,0,0,.02-.02.03-.03-.03-.05-.07-.11-.1-.16-.12-.24-.24-.48-.36-.72-.13-.28-.32-.52-.55-.71-.23-.19-.51-.34-.76-.49-.09-.06-.19-.1-.29-.14.28.01.55.05.83.09.02,0,.04.01.06.02.16.12.32.24.48.36.07.06.15.12.22.17,0,0,.01-.02.02-.03-.15-.2-.33-.36-.54-.51.04-.01.07-.02.1-.01.15.02.3.05.46.06.24.02.43.14.55.34.13.23.24.47.36.7.12.25.31.43.56.52.23.09.47.15.71.22.01,0,.02,0,.05-.02-.05-.06-.1-.12-.14-.18-.15-.22-.32-.42-.45-.65-.12-.19-.24-.38-.42-.53-.13-.11-.28-.2-.42-.3.04,0,.08.01.13.01.19,0,.36.06.54.13.19.08.36.16.52.29.13.11.26.22.39.33.13.12.25.26.37.39-.24-.47-.63-.79-1.08-1.03.06,0,.12.02.17.02.17.01.34.02.5.03-.02-.03-.03-.05-.05-.08-.1,0-.2,0-.29-.01Zm-5.49-.23c.45.36.75.84.96,1.38-.14-.05-.28-.09-.41-.16-.16-.08-.32-.17-.48-.26-.3-.18-.54-.43-.72-.73-.15-.25-.27-.52-.48-.73-.05-.04-.1-.08-.15-.12.47.12.9.31,1.28.61Zm2.04.04c.78.36,1.32.94,1.59,1.74-.35-.22-.71-.43-1.06-.67-.17-.11-.33-.23-.46-.38-.12-.14-.19-.32-.27-.48-.06-.12-.12-.24-.2-.39.13.06.27.11.4.17Zm2.38.29c.22.12.39.3.54.5.09.12.15.26.23.38.09.15.19.3.3.47-.18-.06-.34-.1-.5-.16-.15-.06-.28-.15-.37-.29-.07-.1-.13-.21-.19-.31-.13-.25-.26-.51-.39-.78.12.06.25.11.38.18Z"/>
        <path class="cls-5" d="m11.72,6.21c.34-.2.73-.26,1.12-.34-.15.21-.31.4-.53.54-.22.14-.45.23-.69.29.02.02.03.03.05.05.18-.04.35-.09.51-.19.18-.11.36-.22.5-.37.16-.16.3-.34.53-.41.03,0,.05-.04.07-.06-.04,0-.07-.02-.11-.01-.14.03-.28.09-.42.1-.43.05-.83.17-1.2.39-.06.04-.12.08-.19.12.01.03.03.06.04.09.11-.07.21-.14.32-.2Z"/>
        <path class="cls-5" d="m28.88,4.47s0-.04,0-.06c-.03.02-.06.03-.08.05-.03.05-.06.09-.09.14,0,.01,0,.03,0,.04.05-.07.11-.12.17-.17Z"/>
        <path class="cls-5" d="m30.68,6.28c.33-.21.64-.47.91-.76,0-.04,0-.08.01-.12-.27.25-.53.51-.84.71-.02.02-.05.03-.08.05v.12s0,0,0,0Z"/>
        <path class="cls-5" d="m12.46,6.98s.1-.03.14-.06c-.16.02-.33.03-.49.05.06.01.12.02.18.02.06,0,.11,0,.17-.02Z"/>
        <path class="cls-5" d="m27.76,7.13s.03-.05.09-.06c.02,0,.04,0,.06-.01,0,0,0-.01,0-.02.06-.05.14-.1.19-.16.01-.01.02-.02.03-.03,0-.04.02-.09.03-.15-.08.09-.17.16-.26.25,0,0-.02-.01-.02-.02.15-.28.1-.59.16-.89.04-.18.1-.34.19-.5,0-.07,0-.14,0-.21-.21.31-.29.66-.33,1.03-.01.14-.04.29-.08.43-.07.23-.23.38-.46.43-.16.04-.33.05-.52.08.31-.22.52-.49.68-.8-.03,0-.06.02-.07.04-.16.17-.3.36-.47.52-.19.19-.44.29-.73.34.1-.08.2-.14.27-.21.19-.21.32-.45.38-.73.03-.15.08-.31.15-.44.13-.23.28-.44.42-.66-.05-.04-.06-.04-.1.01-.24.27-.52.49-.8.72-.22.18-.38.41-.48.68-.03.09-.06.18-.09.27,0,0,0,0,.01,0,.04,0,.06,0,.08.01.02-.08.05-.15.07-.23.08-.23.2-.43.38-.6.14-.13.28-.24.42-.36l.03.02c-.02.05-.04.11-.07.15-.08.14-.11.3-.15.45-.09.34-.26.64-.58.82-.08.04-.15.1-.22.14,0,0-.02-.02-.02-.02.02-.05.05-.09.06-.14.01-.04.03-.08.04-.12-.01,0-.02,0-.04,0h-.06s-.02.06-.03.09c-.05.12-.09.26-.24.29-.22.04-.45.08-.67.12-.03,0-.05.02-.08.02-.07.01-.14.03-.21.04-.02.03-.04.07-.06.1.06-.01.13-.02.19-.04.2-.04.4-.09.61-.12.13-.02.27-.04.38,0,.27.12.49.32.67.55.17.21.39.38.64.48.37.14.78.09,1.16.17.02,0,.04-.01.07-.02,0-.02-.01-.05-.03-.06-.02-.02-.04-.04-.07-.05-.24-.12-.41-.32-.56-.53-.14-.2-.3-.39-.53-.49-.17-.07-.35-.11-.53-.16-.1-.03-.2-.04-.31-.07.04-.02.06-.03.08-.04.22-.04.43-.07.65-.11.26-.05.52-.08.78,0,.11.04.22.08.34.13.14.05.27.1.41.15,0-.01.01-.02.02-.03-.1-.06-.19-.12-.29-.17-.1-.05-.21-.1-.32-.13-.11-.04-.22-.06-.32-.09.04-.01.07-.02.11-.03-.03,0-.04-.02-.04-.05Zm-.96.55c.33.07.61.25.81.54.13.19.3.36.45.53-.28-.02-.57.02-.84-.11-.15-.07-.3-.17-.42-.28-.25-.21-.44-.49-.72-.66-.03-.02-.07-.04-.11-.06v-.04c.28.02.56.02.83.08Z"/>
        <path class="cls-5" d="m32.19,6.14s.01.06.02.08c.03,0,.07,0,.1-.01.1-.02.2-.05.29-.09.18-.08.35-.16.52-.26.2-.12.39-.25.58-.38h-.13c-.42.31-.88.53-1.38.66Z"/>
        <path class="cls-5" d="m34.23,4.93s-.03.03-.05.04c.01.03.02.07.03.1.07-.06.14-.11.2-.17.06-.05.11-.11.17-.16,0,0-.01-.02-.02-.03-.04,0-.08,0-.12.01-.11.03-.21.07-.32.11.02.03.03.06.04.1.02,0,.03,0,.06,0Z"/>
        <path class="cls-5" d="m6.9,7c-.02-.07-.04-.14-.05-.22-.01-.05-.03-.09-.05-.15.12.04.22.06.32.1.03.01.06.03.09.04.01-.02.02-.04.03-.08-.06-.02-.11-.05-.17-.07-.12-.05-.25-.09-.35-.16-.21-.13-.4-.28-.61-.43.1.02.19.03.28.05.3.08.59.17.89.26,0,0,0,0,.01,0,0-.03,0-.06,0-.09-.14-.04-.28-.09-.42-.13.14.01.28.03.42.05,0-.02,0-.04,0-.07-.14-.02-.27-.04-.43-.07.12-.04.22-.07.33-.12.04-.02.07-.03.11-.05,0-.03,0-.06,0-.09-.15.06-.3.12-.46.14-.17.03-.35.04-.52.02-.16-.01-.31-.07-.47-.12-.17-.05-.33-.13-.5-.18-.16-.06-.33-.11-.5-.16-.02,0-.06.01-.09.02.21.08.4.16.59.24.41.18.8.41,1.16.68.1.07.17.15.2.27.03.1.05.21.08.31,0,0,.01,0,.02,0,.02,0,.04-.01.06-.02Z"/>
        <path class="cls-5" d="m15.01,6.75s.03.02.05.04c.16-.17.3-.36.45-.55.03-.04.06-.08.08-.11,0-.04-.01-.08-.02-.11-.17.26-.35.52-.57.74Z"/>
        <path class="cls-5" d="m30.91,4.69c-.03.09-.05.15-.08.21-.04.11-.09.21-.13.32,0,.04,0,.08,0,.12v.14c.02-.05.05-.1.07-.16.03-.08.05-.17.09-.25.11-.23.23-.46.34-.69.01-.03,0-.06,0-.1-.03.02-.07.02-.09.05-.08.14-.19.26-.32.35-.05.03-.1.07-.15.1,0,.02,0,.05.01.08.08-.06.16-.11.25-.17Z"/>
        <path class="cls-5" d="m28.72,5.21s0,.06,0,.08c0-.04,0-.07.01-.11,0,0,0,.02,0,.03Z"/>
        <path class="cls-5" d="m8.25,7.87c.02.16.06.31.1.47,0,.04.01.09.02.13-.2-.13-.38-.25-.57-.36-.11-.07-.23-.14-.35-.21-.18-.11-.28-.29-.38-.46-.05-.09-.08-.18-.11-.27-.03,0-.06,0-.08,0,.02.05.03.1.06.15.07.16.17.32.28.47.16.21.4.32.63.45.23.13.47.25.64.46,0,.01.04,0,.06.02-.04-.14-.07-.26-.1-.39-.04-.2-.08-.4-.12-.6-.04-.23-.16-.41-.31-.56h-.14c.21.18.35.41.38.7Z"/>
        <path class="cls-5" d="m15.55,5.86s0-.05-.01-.07c-.21.04-.41.1-.6.19-.02.01-.05.02-.07.04,0,.03,0,.05,0,.07.03-.01.05-.03.08-.04.2-.07.4-.15.61-.18Z"/>
        <path class="cls-5" d="m24.62,8.03c.18.06.35.15.51.25.15.09.28.2.41.31.19.15.38.31.56.47.01.01.02.02.05.05-.44,0-.84-.03-1.17-.34-.19-.18-.37-.38-.56-.56,0,0,0,0-.01-.01-.02.03-.04.05-.06.08.03.02.06.04.09.07.14.14.27.3.42.44.24.23.52.36.85.39.19.02.39.03.58.06.07,0,.13.04.2.06.03,0,.06,0,.09,0-.02-.02-.02-.05-.05-.07-.27-.17-.52-.35-.76-.56-.17-.15-.34-.31-.53-.42-.21-.12-.42-.22-.63-.31-.02.03-.04.06-.06.09.02,0,.05.01.07.02Z"/>
        <path class="cls-5" d="m29.07,7.13s-.02.04-.04.05c.02,0,.03,0,.05.01.24.05.44.19.63.34.23.18.45.37.66.55-.44.03-.85-.07-1.2-.39-.16-.15-.32-.3-.49-.44-.04-.03-.08-.05-.12-.08h-.19s.09.04.13.07c.19.13.35.3.52.46.23.21.49.38.8.43.24.04.48.05.72.07.03,0,.07-.02.1-.03-.02-.04-.03-.08-.07-.11-.12-.09-.26-.15-.38-.25-.28-.23-.54-.49-.88-.65-.14-.06-.29-.11-.43-.15.03.01.05.03.09.03.06,0,.09.03.09.06Z"/>
        <path class="cls-5" d="m8.5,5.3c.1-.04.21-.07.31-.07.36,0,.71,0,1.11,0-.08.08-.14.14-.21.19-.18.13-.36.26-.54.39-.1.07-.22.13-.33.19-.27.13-.57.16-.86.2-.02,0-.04,0-.05,0,0,.02,0,.03,0,.05,0,0,0,0,0,0,.28-.03.57-.06.84-.17.12-.05.25-.1.36-.17.2-.12.38-.26.57-.4.13-.1.27-.2.4-.3,0,0,0-.02,0-.03-.18,0-.35,0-.53,0-.09,0-.18-.03-.27-.02-.11,0-.22.03-.33.02-.34-.01-.65.11-.94.27-.03.02-.07.03-.11.05,0,.03,0,.07,0,.1.19-.1.38-.2.58-.29Z"/>
        <path class="cls-5" d="m18.27,9.68s.06.03.09.05c0-.02,0-.04,0-.07-.1-.05-.21-.1-.3-.15.07.06.15.11.21.17Z"/>
        <path class="cls-5" d="m31.44,6.46s.03-.02.05-.02c.08,0,.16,0,.24-.01-.01-.03-.03-.06-.05-.09-.03,0-.06,0-.1,0,.02-.02.05-.03.07-.03,0,0,.01,0,.02,0,0-.02-.01-.04-.02-.07-.09,0-.18.02-.28.02.08-.06.16-.12.24-.18,0-.03,0-.07-.01-.1-.06.05-.12.09-.18.14-.22.17-.45.3-.73.35,0,.07,0,.13,0,.18.16.02.31.05.46.09.28.09.54.22.75.43.13.13.25.28.38.41.07.08.16.14.24.21,0,.01-.02.03-.02.04-.06,0-.12,0-.18,0-.19-.02-.38-.03-.57-.06-.23-.03-.47-.07-.67-.2-.16-.11-.28-.26-.42-.41h-.11c.09.1.17.2.26.3.21.24.49.33.79.37.24.03.48.03.72.05.17.02.33.06.53.09-.02-.04-.03-.1-.05-.11-.26-.09-.42-.29-.58-.49-.2-.25-.44-.46-.73-.59-.22-.1-.46-.15-.7-.22-.02,0-.05-.01-.07-.02.36-.04.7,0,1.05.07.02,0,.04.01.06.02-.03-.04-.05-.08-.07-.12-.11-.03-.22-.05-.33-.06Z"/>
        <path class="cls-5" d="m25.62,5.71s.03-.05.04-.07c0,0-.02-.02-.03-.03-.06.03-.11.06-.17.09-.01,0-.03.01-.04.02-.01.11-.03.21-.05.31.07-.12.15-.22.25-.32Z"/>
        <path class="cls-5" d="m25.53,6.75s-.06.06-.1.09c0,0,.02.01.02.02.02-.04.05-.07.07-.11Z"/>
        <path class="cls-5" d="m25.24,7.17h-.15s-.08.08-.12.12c-.05.1-.09.19-.14.28.16-.12.29-.26.41-.4Z"/>
        <path class="cls-5" d="m23,9.64s.08,0,.13,0c-.05-.07-.1-.12-.15-.19-.06.04-.12.07-.18.1.07.02.14.05.2.08Z"/>
        <path class="cls-5" d="m28.94,6.15s-.02-.01-.03-.02c-.07.09-.15.17-.22.26,0,0-.01.01-.02.02,0,.06,0,.12,0,.18.04-.05.09-.1.12-.16.05-.09.09-.19.14-.28Z"/>
        <path class="cls-5" d="m36.1,6.87s-.1,0-.14-.03c-.27-.13-.53-.26-.8-.38-.14-.06-.29-.14-.44-.15-.25-.03-.5-.03-.74,0-.23.02-.46.08-.68.12-.18.03-.36.04-.54.06-.02,0-.04-.02-.06-.03v-.03c.48,0,.89-.18,1.29-.42-.4.08-.76.27-1.17.33-.19.03-.37.03-.55.02.02.04.03.08.05.11.17.03.34.06.51.12.17.06.33.17.5.25.07.03.15.07.22.1.04-.01.07-.03.11-.04-.03-.01-.06-.03-.09-.04-.19-.1-.37-.2-.59-.32.07,0,.12,0,.16-.01.28-.04.56-.09.84-.13.27-.03.54-.07.8.02.16.06.33.11.49.18.15.07.29.15.43.26-.03,0-.05,0-.08.01-.22.04-.44.08-.66.11-.21.04-.43.09-.64.1-.15,0-.3-.03-.44-.08-.03.02-.05.04-.08.06.09.03.17.07.26.09.34.09.69.02,1.02-.07.31-.08.63-.15.95-.11.05,0,.1,0,.15,0,0,0,0-.02.01-.03-.02-.02-.04-.04-.07-.05Z"/>
        <path class="cls-5" d="m32.38,5.5h-.15s-.05.03-.07.05c0,.04,0,.08,0,.12.08-.06.15-.11.23-.17Z"/>
        <path class="cls-5" d="m29.85,7.06c-.22-.11-.48-.15-.71-.23.2-.04.4-.06.6-.11.19-.05.32.01.45.11,0-.03.01-.05.02-.1,0,0,0,0,0,0-.01-.01-.02-.03-.04-.05.02,0,.03-.01.05-.01,0-.06,0-.13.01-.21-.02.01-.04.03-.06.04-.18.1-.38.15-.59.17-.05,0-.11.03-.16.04.29-.17.57-.32.82-.54,0-.05,0-.1,0-.15-.05.05-.09.1-.14.14-.27.22-.57.39-.89.51-.03.01-.05.03-.1.03.03-.04.06-.08.08-.12.14-.23.29-.46.42-.69.15-.27.35-.49.59-.68,0-.03,0-.07-.01-.1-.01,0-.03.02-.04.03-.13.1-.27.2-.37.33-.16.21-.29.44-.43.67-.17.27-.31.57-.64.69,0,0,0,0,0,0,0,.03.01.05.02.07,0,.02.03.04.04.05.26-.02.52.01.77.09.09.03.18.05.26.07,0-.03.02-.04.05-.05Z"/>
        <path class="cls-5" d="m32.98,5.2c.23-.07.46-.1.7-.15,0-.02.01-.04.01-.07,0-.01,0-.02,0-.04-.14.02-.27.04-.41.06-.16.03-.32.07-.46.14-.1.05-.2.12-.3.18.05,0,.1,0,.15,0,.1-.05.2-.1.31-.13Z"/>
        <path class="cls-5" d="m7.29,6.36c.16.05.34.09.49.17.06.03.12.08.18.11,0-.05-.01-.12-.02-.2-.22-.04-.43-.11-.64-.18,0,.03,0,.06,0,.09Z"/>
        <path class="cls-5" d="m7.75,6.95c-.16-.11-.34-.18-.52-.25,0,.03-.02.05-.03.08.19.09.37.17.54.29.05.03.08.07.12.1h.14c-.08-.08-.16-.15-.25-.21Z"/>
        <path class="cls-5" d="m8.47,7.04s.02.01.02.02c.02.02.04.04.06.07,0,0,.02-.01.02-.02,0-.03-.04-.05-.11-.06Z"/>
        <path class="cls-5" d="m7.93,6.18c-.16,0-.32-.02-.48-.04-.05,0-.1-.02-.15-.02,0,.02,0,.04,0,.07.09.01.18.02.27.03.12.01.24.04.35.03,0,0,0,0,0,0,0,0,0,0,0,0,0-.02,0-.03,0-.05Z"/>
        <path class="cls-5" d="m6.9,7s-.04.01-.06.02c-.01,0-.01,0-.02,0,.01.05.03.09.05.13.02,0,.05,0,.08,0-.02-.05-.04-.11-.05-.16Z"/>
        <path class="cls-5" d="m7.79,5.66s.09-.04.13-.07c0-.03,0-.07,0-.1-.19.1-.38.21-.58.29-.01,0-.03,0-.04.01,0,.03,0,.06,0,.09.16-.07.32-.15.48-.23Z"/>
        <path class="cls-5" d="m11.44,7.07c.2.11.41.17.65.17.03,0,.05,0,.07,0-.14-.02-.28-.03-.42-.04-.03,0-.06-.02-.09-.03.28-.05.55-.09.81-.18-.06,0-.11.02-.17.02-.06,0-.12,0-.18-.02-.11.01-.22.03-.33.05-.12.02-.23.04-.35.04Z"/>
        <path class="cls-5" d="m11.35,6.74c-.09,0-.19.02-.28.04.01.01.02.02.03.04,0,0,.02.01.03.02.08-.01.16-.02.24-.03.1,0,.2-.03.31-.05-.02-.02-.03-.03-.05-.05-.09.02-.18.03-.27.04Z"/>
        <path class="cls-5" d="m11.4,6.42s-.03-.06-.04-.09c-.11.07-.23.14-.33.22-.03.02-.07.05-.1.07.02.02.04.05.06.07.14-.09.28-.18.42-.27Z"/>
        <path class="cls-5" d="m15.56,6.94c-.17.1-.34.2-.51.3.02,0,.03,0,.04,0,.06,0,.12-.02.17-.02.22-.13.28-.2.29-.28Z"/>
        <path class="cls-5" d="m14.87,6.09s0-.05,0-.07c-.17.08-.34.17-.47.3,0,0-.01.02-.02.02,0,.04,0,.07.01.11.14-.15.29-.28.48-.36Z"/>
        <path class="cls-5" d="m15.05,6.78s-.03-.02-.05-.04c-.03.03-.05.06-.08.08-.1.09-.2.15-.32.21.02.02.04.04.07.06.1-.06.2-.12.28-.2.04-.03.06-.07.1-.11Z"/>
        <path class="cls-5" d="m26.02,7.17s.03,0,.04,0c.01-.04.03-.08.04-.11-.02,0-.05-.01-.08-.01,0,0,0,0-.01,0-.01.04-.03.09-.04.13h.06Z"/>
        <path class="cls-5" d="m25.09,7.17h.15c.08-.1.15-.2.22-.3,0,0-.02-.01-.02-.02-.05.04-.1.08-.14.13-.07.06-.13.13-.2.2Z"/>
        <path class="cls-5" d="m30.2,6.65s0,0,.01,0c.16-.02.31-.01.47,0,0-.05,0-.11,0-.18-.11.02-.22.03-.34.01.12-.06.23-.13.34-.2,0,0,0,0,0,0v-.12c-.15.1-.31.2-.47.29,0,.08,0,.15-.01.21Z"/>
        <path class="cls-5" d="m28.29,5.39c.11-.15.2-.31.3-.47.01,0,.03.01.04.02-.04.34-.05.69-.13,1.03-.06.26-.18.51-.35.72,0,0,0,0-.01.01,0,.06-.02.11-.03.15.12-.12.23-.25.31-.41.11-.23.21-.47.24-.73.02-.14.03-.28.04-.42,0-.02,0-.06,0-.08,0,0,0-.02,0-.03,0-.07.01-.14.02-.22.02-.16.09-.3.13-.46,0-.01,0-.03,0-.04-.06.05-.11.11-.17.17,0-.01,0-.03,0-.04-.01.02-.03.05-.04.07-.14.21-.29.43-.44.64,0,0,0,0,0,.01,0,.07,0,.14,0,.21.02-.04.04-.09.07-.13Z"/>
        <path class="cls-5" d="m30.2,5.19s.05-.05.08-.07c.12-.09.25-.18.38-.26,0-.03,0-.06-.01-.08-.15.1-.31.21-.46.32,0,.03,0,.07.01.1Z"/>
        <path class="cls-5" d="m29.97,7.12s-.08-.04-.12-.06c-.03.01-.05.03-.05.05.05.01.11.03.16.04,0-.01,0-.02.01-.03Z"/>
        <path class="cls-5" d="m30.7,5.21c-.05.11-.09.22-.14.32-.08.18-.2.33-.33.47,0,.05,0,.11,0,.15,0,0,.01,0,.02-.01.21-.19.35-.42.46-.67v-.14s0-.08,0-.12Z"/>
        <path class="cls-5" d="m28.7,6.82c-.1.04-.21.09-.31.13,0-.01-.02-.03-.03-.04.08-.07.16-.14.23-.22.03-.03.05-.07.08-.1,0-.05,0-.11,0-.18-.15.21-.32.41-.53.57-.07.05-.16.06-.24.09,0,0,0-.01,0-.02-.02,0-.03.01-.06.01-.06,0-.09.03-.09.06,0,.02.02.04.04.05.02,0,.03-.01.05-.01.18-.05.36-.05.52.02h.19s-.07-.04-.11-.07v-.04c.11.01.21.02.31.04.09.02.18.05.27.07.02,0,.04-.02.04-.05,0-.03-.03-.05-.09-.06-.04,0-.06-.02-.09-.03-.07-.02-.13-.04-.21-.04-.03,0-.06,0-.12-.01.04-.02.05-.04.07-.04.04,0,.09,0,.13,0-.01-.02-.03-.03-.04-.05,0-.02-.01-.04-.02-.07Z"/>
        <path class="cls-5" d="m30.64,7.13c-.14-.15-.29-.28-.44-.41,0,.04,0,.07-.02.1.07.05.13.11.2.17.06.06.12.12.18.19h.11s-.02-.03-.03-.04Z"/>
        <path class="cls-5" d="m33.69,4.94s0,.02,0,.04c0,.03,0,.05-.01.07.01,0,.03,0,.04,0,.14-.03.28-.07.41-.1,0,0,.02,0,.03,0-.01-.03-.02-.07-.04-.1-.07.02-.14.05-.22.07-.07.02-.15.03-.22.04Z"/>
        <path class="cls-5" d="m31.87,5.19s-.07.01-.08.02c-.06.06-.13.12-.19.18,0,.04,0,.08-.01.12.1-.1.19-.21.28-.33Z"/>
        <path class="cls-5" d="m32.43,5.47c.08-.05.16-.1.24-.14-.05,0-.1,0-.15,0-.1.06-.19.11-.29.18h.15s.03-.02.04-.03Z"/>
        <path class="cls-5" d="m31.77,6.52s.05.08.07.12c.32.09.58.28.86.43-.25-.31-.58-.46-.93-.55Z"/>
        <path class="cls-5" d="m33.64,6.88s-.07.03-.11.04c.08.04.16.07.24.1.03-.02.05-.04.08-.06-.07-.03-.14-.06-.21-.09Z"/>
        <path class="cls-5" d="m31.67,6.33s.03.06.05.09c.2,0,.4,0,.59.03-.02-.04-.03-.07-.05-.11-.2,0-.39-.02-.59-.01Z"/>
        <path class="cls-5" d="m33.58,5.48h.13s.04-.03.06-.04c.15-.11.3-.24.45-.37,0-.03-.02-.07-.03-.1-.19.19-.39.36-.6.51Z"/>
        <path class="cls-5" d="m31.65,6.23s.01.04.02.07c.18-.02.37-.05.55-.08,0-.03-.01-.05-.02-.08-.18.04-.36.07-.55.09Z"/>
        <path class="cls-5" d="m32.15,5.67s0-.08,0-.12c0,0,0,0,0,0-.19.14-.38.28-.56.43,0,.03,0,.07.01.1.11-.08.22-.16.33-.24.07-.06.15-.11.22-.17Z"/>
        <path class="cls-4" d="m19.33,8.89c.06.15.14.29.23.42.14.22.4.25.61.4-.02-.07-.04-.11-.05-.16-.05-.21-.1-.42-.16-.63-.03-.09-.06-.18-.11-.25-.13-.15-.27-.3-.42-.43-.11-.09-.24-.14-.39-.23.11.31.19.59.3.87Z"/>
        <path class="cls-4" d="m23.74,7.1s.06-.07.17-.07c.19,0,.34-.05.45-.16.12-.11.18-.25.2-.43,0-.05,0-.15.01-.27-.18.09-.34.2-.49.34-.33.3-.49.7-.68,1.12.05-.03.08-.05.11-.06.26-.12.53-.23.79-.35.03-.02.06-.04.09-.06h-.56c-.06,0-.09-.02-.09-.07Z"/>
        <path class="cls-4" d="m16.74,6.94s.05-.15.05-.31c-.05.05-.11.1-.16.15-.09.09-.18.18-.26.27.03-.01.07-.02.12-.03.13-.02.22-.05.25-.09Z"/>
        <path class="cls-4" d="m19.93,6.28c-.13,0-.25.05-.37.07-.09.01-.17.04-.25.07.02.16.06.27.11.34.02.02.05.03.07.05,0-.01.02-.02.03-.03.14-.17.28-.33.42-.49Z"/>
        <path class="cls-4" d="m17.46,6.21s-.01-.01-.02-.02c-.04.02-.09.04-.13.06v.23c.05-.09.1-.18.15-.28Z"/>
        <path class="cls-4" d="m21.17,8.35c.13.16.24.35.38.5.15.16.31.33.53.4.15.05.28.12.43.17.1.03.21.04.34.06-.16-.21-.29-.4-.44-.58-.11-.13-.23-.26-.37-.37-.15-.11-.32-.18-.48-.27-.19-.1-.4-.18-.64-.21.09.1.18.19.25.29Z"/>
        <path class="cls-4" d="m16.92,8.27c.09.23.22.44.41.6.26.21.54.38.81.57-.13-.48-.24-.96-.7-1.25-.22-.14-.44-.29-.71-.34.07.15.13.28.19.42Z"/>
        <path class="cls-4" d="m18.81,6.6s-.04.02-.07.03c-.21.12-.36.29-.46.52-.04.11-.1.2-.16.3-.05.09-.11.18-.18.28.22-.01.43-.07.62-.16.22-.1.44-.21.6-.4,0,0,0,0,0,0-.09-.04-.16-.1-.22-.18-.07-.1-.11-.23-.14-.38Z"/>
        <path class="cls-4" d="m21.62,7.12c.12-.16.23-.32.36-.48.08-.1.16-.19.25-.28-.46.13-.92.27-1.22.67-.16.22-.26.47-.31.74.09-.04.16-.07.24-.11.28-.12.5-.31.68-.54Z"/>
        <path class="cls-2" d="m15.97,6.79s-.02-.05-.05-.05c-.01,0-.05.02-.1.05-.01,0-.03.01-.04.02.02.05.04.1.05.15.08-.07.13-.13.13-.17Z"/>
        <path class="cls-2" d="m15.85,4.38s.05-.1.05-.21c0-.03-.07-.05-.21-.05h-.09c-.02.09-.03.18-.04.26.13,0,.23-.01.29-.01Z"/>
        <path class="cls-2" d="m17.76,7.19s.07-.02.07-.06c0-.05-.07-.07-.2-.08-.11,0-.2-.03-.25-.08-.05-.04-.08-.15-.08-.31,0,0,0,0,0,0-.09.17-.2.33-.33.47.04,0,.07,0,.11,0,.15,0,.32.02.49.03.04-.03.08-.06.12-.09,0,0,.01,0,.04,0-.02.04-.05.06-.08.09.01,0,.03,0,.04,0,.02,0,.05,0,.06,0Z"/>
        <path class="cls-2" d="m17.02,6.97c.11-.14.18-.3.27-.45,0-.01.01-.02.02-.04v-.23s-.1.04-.14.07c-.14.08-.25.19-.37.3,0,.16-.02.27-.05.31-.04.04-.12.07-.25.09-.05,0-.09.02-.12.03-.02.03-.05.05-.07.08,0,.03.03.05.08.05.02,0,.05,0,.07,0,.09-.01.22-.02.41-.03.06-.05.11-.11.16-.17Z"/>
        <path class="cls-2" d="m17.31,5.66v-.75s0-.8,0-.8c-.1,0-.28.01-.55.03s-.4.03-.42.05-.03.03-.03.05c0,.04.03.06.09.06.17,0,.29.04.35.12s.09.31.09.7l-.02,1.39c.15-.13.32-.24.51-.33v-.51Z"/>
        <path class="cls-2" d="m16.93,3.02c.1,0,.18-.03.24-.1s.09-.15.09-.24c0-.08-.04-.15-.11-.22s-.15-.1-.24-.1c-.1,0-.18.03-.24.09s-.09.14-.09.24.04.18.11.24.15.09.24.09Z"/>
        <path class="cls-2" d="m20.12,7.06c.17-.12.25-.21.25-.27,0-.03-.02-.05-.05-.05-.01,0-.05.02-.1.05-.15.09-.29.14-.42.14-.1,0-.19-.03-.26-.07-.1.11-.2.23-.3.34.08.02.15.05.24.05.25,0,.45-.06.62-.19Z"/>
        <path class="cls-2" d="m19.27,5.98c0-.51.02-1.02.05-1.55.5-.04.81-.05.93-.05.03-.03.05-.1.05-.21,0-.03-.07-.05-.21-.05h-.78s0-.54,0-.54c0-.12,0-.23.01-.32,0-.02,0-.05,0-.07,0-.07-.02-.1-.07-.1s-.07.04-.08.12c-.04.31-.17.56-.4.73-.23.17-.39.28-.49.31-.06.02-.09.04-.09.07,0,.03.03.05.08.05h.21c.21.03.32.03.34.04-.04.85-.06,1.45-.06,1.8,0,.11.02.2.03.29.16-.08.32-.15.49-.19-.01-.1-.02-.22-.02-.35Z"/>
        <path class="cls-2" d="m19.41,6.75c-.05-.07-.09-.18-.11-.34-.17.05-.33.11-.49.2.03.15.07.29.14.38.06.08.13.14.22.18.1-.12.2-.25.3-.37-.02-.02-.05-.03-.07-.05Z"/>
        <path class="cls-2" d="m24.92,6.67c.12-.2.22-.41.33-.62,0-.05,0-.1,0-.15-.23.08-.46.17-.67.28,0,.12,0,.21-.01.27-.02.18-.08.32-.2.43-.12.11-.27.16-.45.16-.11,0-.17.02-.17.07s.03.07.09.07h.56c.22-.12.4-.28.53-.5Z"/>
        <path class="cls-2" d="m25.26,6.21c-.18.36-.36.72-.7.96h.46c.11-.24.19-.49.26-.75,0-.06-.01-.13-.02-.21,0,0,0,0,0,0Z"/>
        <path class="cls-2" d="m22.8,2.49s-.1,0-.22,0c-.08.48-.13.86-.14,1.14.02.02.04.03.07.03.05,0,.08-.03.1-.09.04-.17.17-.36.4-.57.23-.21.6-.32,1.12-.32.08,0,.21,0,.39.01.05.72.07,1.44.07,2.18,0,.52,0,.91-.01,1.18.06-.03.12-.06.18-.08.16-.05.32-.12.48-.19-.02-.45-.03-1.07-.03-1.86,0-.1,0-.18,0-.27-.12-.4-.3-.77-.52-1.11-.5,0-.89-.01-1.16-.03-.31-.02-.56-.03-.74-.03Z"/>
        <path class="cls-5" d="m16.97,7.14s-.08,0-.11,0c-.05.05-.11.09-.17.13-.19.12-.39.19-.61.22.01.02.03.05.04.07.19-.02.37-.09.53-.18.13-.06.23-.15.32-.25Z"/>
        <path class="cls-5" d="m17.31,6.26s.09-.04.13-.06c0,0,.01.01.02.02-.05.09-.1.19-.16.28v.16s0,.01,0,.02c.09-.16.18-.33.28-.48.05-.08.13-.15.2-.22,0,0,0-.02-.01-.03-.03.01-.06.02-.09.03-.11.06-.21.12-.33.17-.02,0-.03.02-.05.03v.09Z"/>
        <path class="cls-5" d="m25.25,5.89s.07-.03.11-.04c-.04.07-.07.13-.1.19,0,.06,0,.11.01.16.03-.06.07-.12.11-.18.02-.1.04-.21.05-.31-.06.03-.12.05-.18.08,0,.04,0,.07,0,.1Z"/>
        <path class="cls-5" d="m19.55,6.34c.12-.02.24-.06.37-.07-.14.16-.28.33-.42.49,0,.01-.02.02-.03.03.02.02.05.04.07.06.01-.01.02-.02.03-.04.17-.19.34-.38.5-.57.03-.03.04-.08.07-.14-.08.02-.14.03-.19.04-.12.03-.23.09-.34.1-.12.01-.22.05-.33.08,0,.02,0,.05,0,.07.08-.02.17-.05.25-.07Z"/>
        <path class="cls-5" d="m16.3,7.13s0,0,0-.01c0-.03.03-.04.08-.06.09-.09.17-.19.26-.27.05-.05.11-.1.16-.15,0-.02,0-.03,0-.04v-.09s-.03.02-.04.03c-.19.18-.36.38-.55.57-.07.07-.14.14-.22.21.01.02.02.04.03.06.1-.07.19-.15.28-.24Z"/>
        <path class="cls-5" d="m24.52,7.77c.11-.06.21-.12.3-.2.05-.09.1-.19.14-.28-.08.08-.16.16-.25.22-.16.12-.35.19-.54.26-.1.04-.22.05-.33.05-.12,0-.23-.02-.35-.03-.07,0-.14,0-.22,0,.03-.03.05-.05.07-.06.24-.1.48-.2.72-.31.17-.08.34-.15.49-.25,0,0,0,0,.01-.01h-.17s-.05.04-.09.06c-.26.12-.52.23-.79.35-.03.01-.05.03-.11.06.19-.42.35-.81.68-1.12.15-.14.32-.25.49-.34,0-.03,0-.08,0-.11-.24.12-.45.29-.64.47-.29.27-.43.64-.59.99-.08.18-.21.3-.39.32-.32.02-.64,0-.96,0,.22-.14.44-.28.67-.42,0,0-.01-.02-.02-.03-.1.05-.2.1-.3.15-.2.1-.39.24-.61.29-.28.07-.57.08-.86.11-.11,0-.22-.01-.34-.02.22-.1.44-.18.63-.3.32-.19.53-.49.74-.79.08-.12.18-.24.29-.34.13-.11.29-.2.43-.3.03-.02.04-.05.06-.08-.16.04-.3.11-.45.15-.3.07-.58.17-.84.32-.2.11-.38.26-.51.45-.11.15-.16.32-.23.5-.12.33-.1.35-.45.36-.24,0-.48,0-.72,0-.18,0-.35,0-.53,0,.33-.17.65-.34.91-.59-.02,0-.03,0-.04,0-.27.15-.55.28-.8.44-.27.18-.55.09-.84.08.13-.07.27-.11.41-.17.17-.08.35-.15.48-.27.06-.05.12-.12.17-.18-.03,0-.06,0-.08-.02,0,0,0,0,0,0-.16.19-.38.3-.6.4-.2.09-.4.15-.62.16.06-.1.12-.19.18-.28.06-.1.12-.2.16-.3.09-.23.25-.39.46-.52.02-.01.04-.02.07-.03,0-.02,0-.05,0-.08-.04.02-.08.03-.12.06-.16.09-.31.22-.4.4-.09.18-.17.35-.28.52-.12.2-.29.34-.55.3-.07-.01-.14,0-.22,0-.14,0-.28-.02-.44-.02.19-.1.37-.18.52-.28.12-.08.23-.18.32-.3-.03,0-.05,0-.08,0-.12.1-.23.19-.36.28-.22.16-.46.27-.74.27-.09,0-.17,0-.26-.01.02.03.03.06.05.08.03,0,.06,0,.09,0,.12.01.25.02.31.16.06.14.13.27.2.41.1.22.25.4.42.56.14.13.31.23.47.33.11.07.2.16.3.24.1.05.2.1.3.15,0-.02,0-.04,0-.06-.03-.1-.08-.19-.12-.28-.08-.2-.14-.42-.24-.61-.07-.14-.16-.29-.28-.39-.19-.17-.41-.3-.62-.45.15.01.32-.01.46.04.21.08.41.2.59.33.13.1.24.23.35.36.09.1.16.22.24.33.01,0,.02-.02.03-.03-.17-.46-.55-.75-.96-.99.04-.01.08-.02.11-.02.25.02.49.04.74.05.19.01.28.13.34.28.11.27.19.56.3.83.08.2.2.37.39.48.11.06.23.1.33.17.12.08.22.19.36.31,0-.05,0-.09-.01-.12-.04-.09-.1-.18-.13-.27-.08-.25-.13-.51-.22-.76-.04-.12-.12-.24-.19-.35-.14-.2-.34-.35-.56-.46-.02,0-.03-.04-.05-.07.55-.03.95.31,1.41.51-.24-.23-.53-.39-.83-.53.11-.01.22-.02.33,0,.18.01.36.03.55.05.03,0,.06,0,.08.02.11.1.22.2.31.31.21.24.35.52.6.73.21.18.45.3.71.37.14.03.28.07.42.12.06-.03.12-.07.18-.1-.07-.09-.15-.19-.22-.28-.15-.19-.29-.4-.47-.56-.29-.27-.63-.46-1.02-.55-.03,0-.05-.02-.08-.03,0,0,0-.02,0-.03.28,0,.56-.01.84.05.37.08.67.26,1,.42.07.04.14.07.22.1-.35-.3-.74-.52-1.19-.62.17-.01.32,0,.48-.02.36-.02.73-.04,1.09-.06.04,0,.08,0,.11,0,.22.1.43.22.61.38.02-.03.04-.05.06-.08-.11-.1-.23-.18-.34-.29.16.03.32.06.48.11.02-.03.04-.06.06-.09-.04-.02-.09-.04-.13-.06.05,0,.11-.02.18-.03.02-.03.04-.07.06-.1-.07.01-.14.02-.2.04Zm-3.52-.74c.3-.4.76-.54,1.22-.67-.08.09-.17.18-.25.28-.12.16-.23.32-.36.48-.19.23-.41.42-.68.54-.08.03-.15.07-.24.11.05-.27.15-.53.31-.74Zm-3.56,1.16c.45.29.57.78.7,1.25-.27-.19-.55-.37-.81-.57-.19-.15-.33-.36-.41-.6-.05-.14-.12-.27-.19-.42.27.05.49.19.71.34Zm1.98.06c.15.13.29.28.42.43.06.07.09.16.11.25.06.21.11.42.16.63.01.05.03.09.05.16-.21-.15-.47-.19-.61-.4-.09-.13-.17-.27-.23-.42-.11-.27-.19-.55-.3-.87.14.08.28.14.39.23Zm2.14.02c.16.09.34.16.48.27.14.1.26.23.37.37.15.18.28.37.44.58-.13-.02-.24-.03-.34-.06-.15-.05-.28-.12-.43-.17-.22-.08-.38-.24-.53-.4-.14-.15-.25-.33-.38-.5-.07-.1-.16-.18-.25-.29.24.02.44.11.64.21Z"/>
        <path class="cls-5" d="m15.65,5.84s.02,0,.04,0c-.04.06-.07.11-.11.17,0,.04.01.08.02.11.1-.14.18-.28.34-.37.01,0,0-.06,0-.09-.09.04-.15.08-.21.09-.06,0-.12.03-.18.04,0,.02,0,.05.01.07.03,0,.06-.02.09-.02Z"/>
        <path class="cls-5" d="m17.69,7.08s-.08.06-.12.09c.03,0,.05,0,.08,0,.02-.03.05-.06.08-.09-.02,0-.03,0-.04,0Z"/>
        <path class="cls-5" d="m16.29,7.11s0,0,0,.01c.02-.02.05-.05.07-.08-.05.02-.08.04-.08.06Z"/>
        <path class="cls-5" d="m16.8,6.63c.12-.11.23-.22.37-.3.04-.03.09-.05.14-.07v-.04s0-.05,0-.05c-.18.09-.36.19-.51.33v.09s0,.03,0,.04Z"/>
        <path class="cls-5" d="m17.31,6.49s-.01.02-.02.04c-.09.15-.16.31-.27.45-.05.06-.1.12-.16.17.03,0,.07,0,.11,0,.13-.14.24-.3.33-.47,0,0,0,0,0,0,0,0,0-.01,0-.02v-.16Z"/>
        <path class="cls-5" d="m19.48,6.8c-.1.12-.2.25-.3.37.02.01.05.01.08.02.1-.11.2-.22.3-.34-.03-.01-.05-.04-.07-.06Z"/>
        <path class="cls-5" d="m19.29,6.33c-.17.05-.33.11-.49.19,0,.02,0,.05,0,.08.15-.09.32-.15.49-.2,0-.02,0-.05,0-.07Z"/>
        <path class="cls-5" d="m25.24,5.79c-.16.07-.32.14-.48.19-.06.02-.12.05-.18.08,0,.04,0,.08,0,.11.21-.11.43-.2.67-.28,0-.03,0-.07,0-.1Z"/>
        <path class="cls-5" d="m25.26,6.21s0,0,0,0c0-.05,0-.1-.01-.16-.11.21-.22.42-.33.62-.13.22-.31.38-.53.5h.17c.34-.24.52-.6.7-.96Z"/>
      </g>
    </g>
  </g>
</svg>